<?xml version="1.0" encoding="utf-8"?>
<!-- Generator: Adobe Illustrator 19.0.0, SVG Export Plug-In . SVG Version: 6.00 Build 0)  -->
<svg version="1.1" id="Layer_1" xmlns="http://www.w3.org/2000/svg" xmlns:xlink="http://www.w3.org/1999/xlink" x="0px" y="0px"
	 width="136px" height="28px" viewBox="0 0 136 28" style="enable-background:new 0 0 136 28;" xml:space="preserve">
<style type="text/css">
	.st0{fill:#FBEEE6;}
</style>
<g>
	<g id="XMLID_31_">
		<path id="XMLID_52_" class="st0" d="M23.2,18.6c-0.1,1.9-0.6,3.6-1.5,5.1c-0.9,1.5-2.3,2.6-4,3.4c-1.7,0.8-3.7,1.2-5.8,1.2
			c-3.6,0-6.5-1.2-8.5-3.5c-2.1-2.4-3.1-5.7-3.1-10v-1.4c0-2.7,0.5-5,1.4-7.1c0.9-2,2.3-3.6,4-4.7C7.4,0.6,9.4,0,11.7,0
			c3.3,0,6,0.9,8,2.6c2,1.8,3.2,4.2,3.5,7.3h-6.6c-0.1-1.7-0.5-2.9-1.3-3.6c-0.8-0.7-2-1.1-3.6-1.1c-1.6,0-2.9,0.6-3.6,1.8
			c-0.8,1.2-1.2,3.2-1.2,5.9v1.9c0,2.9,0.4,5,1.1,6.3s2,1.9,3.8,1.9c1.5,0,2.7-0.4,3.5-1.1c0.8-0.7,1.2-1.9,1.3-3.4H23.2z
			 M16.6,18.6h6.6c-0.1,1.9-0.6,3.6-1.5,5.1L16.6,18.6z"/>
		<path id="XMLID_48_" class="st0" d="M32.6,15H32c0,0,0,2.3,1.3,4.8C33.3,19.8,32.6,16,32.6,15z M43.8,16.2
			c-0.2-0.3-0.5-0.5-0.9-0.5c0,0.1-0.3,1.6-0.6,2.3c0.3,0,0.6-0.1,0.8-0.2C43.8,17.5,44.1,16.7,43.8,16.2z M43.8,16.2
			c-0.2-0.3-0.5-0.5-0.9-0.5c0,0.1-0.3,1.6-0.6,2.3c0.3,0,0.6-0.1,0.8-0.2C43.8,17.5,44.1,16.7,43.8,16.2z M32,15c0,0,0,2.3,1.3,4.8
			c0,0-0.6-3.8-0.6-4.8H32z M50.1,10.6c-0.2-2.3-1-4.2-2.3-5.9c-1.3-1.7-3.1-2.9-5.2-3.8c-2.2-0.8-4.4-1-6.5-0.7
			c-2.1,0.4-4,1.4-5.6,3c-1.7,1.6-3,3.6-3.9,6.1L26,10.8c-0.9,2.4-1.2,4.8-0.9,7c0.2,2.2,1,4.2,2.3,5.8c1.3,1.6,3.1,2.9,5.3,3.7
			c2.2,0.8,4.3,1,6.5,0.7c2.1-0.4,4-1.4,5.6-3c1.7-1.6,3-3.6,3.9-6.1l0.4-1.2C50,15.2,50.3,12.9,50.1,10.6z M35.6,9.3
			c3.3-2.4,1.6-3.2,1-4c0,0,2.5,0.6,2.1,2.3c0.3,0.1,2.3,0.6,0.6,3c-1.5,2.1-0.5,2.8-0.1,2.9c-0.7-0.2-3.3-1.1-1.3-2.9
			c2.2-2,1.3-2.4,0.8-2.9c-0.1,0.5-0.5,1-1.1,1.7c-2.8,2.6-0.5,3.8-0.1,4C36.9,13.1,32.5,11.5,35.6,9.3z M41,22h-7.8l-2.9-1h13.6
			L41,22z M44.6,17c0,0.1,0,0.1-0.1,0.2c-0.1,0.2-0.2,0.4-0.3,0.5c-0.1,0.1-0.2,0.2-0.3,0.3c0,0,0,0-0.1,0c-0.1,0.1-0.2,0.2-0.4,0.3
			c-0.2,0.1-0.4,0.2-0.6,0.3c-0.3,0.1-0.6,0.1-0.9,0.1c-0.2,0.5-0.5,1.3-0.8,1.3H33c-1.1-2-1.8-4-1.9-6H43c0,0,0,1-0.1,1h0.1
			c0.1,0,0.2,0,0.3,0c0.1,0,0.2,0,0.3,0.1c0.1,0,0.2,0.1,0.3,0.1c0.3,0.1,0.5,0.3,0.7,0.6C44.8,16.2,44.8,16.6,44.6,17z M42.9,15.8
			c0,0.1-0.3,1.6-0.6,2.3c0.3,0,0.6-0.1,0.8-0.2c0.7-0.4,1.1-1.1,0.8-1.6C43.6,15.9,43.3,15.8,42.9,15.8z M32,15c0,0,0,2.3,1.3,4.8
			c0,0-0.6-3.8-0.6-4.8H32z M32.6,15H32c0,0,0,2.3,1.3,4.8C33.3,19.8,32.6,16,32.6,15z M43.8,16.2c-0.2-0.3-0.5-0.5-0.9-0.5
			c0,0.1-0.3,1.6-0.6,2.3c0.3,0,0.6-0.1,0.8-0.2C43.8,17.5,44.1,16.7,43.8,16.2z M43.8,16.2c-0.2-0.3-0.5-0.5-0.9-0.5
			c0,0.1-0.3,1.6-0.6,2.3c0.3,0,0.6-0.1,0.8-0.2C43.8,17.5,44.1,16.7,43.8,16.2z M32.6,15H32c0,0,0,2.3,1.3,4.8
			C33.3,19.8,32.6,16,32.6,15z"/>
		<path id="XMLID_44_" class="st0" d="M70.3,16.9H59.6v10.9H53V0.4h18.4v5.1H59.6v6.3h10.7V16.9z"/>
		<path id="XMLID_40_" class="st0" d="M91.4,16.9H80.7v10.9h-6.6V0.4h18.4v5.1H80.7v6.3h10.7V16.9z"/>
		<path id="XMLID_36_" class="st0" d="M112.3,16.2h-10.4v6.6h12.3v5.1H95.2V0.4h19v5.1h-12.3v5.8h10.4V16.2z"/>
		<path id="XMLID_32_" class="st0" d="M133.9,16.2h-10.4v6.6h12.3v5.1h-18.9V0.4h19v5.1h-12.3v5.8h10.4V16.2z"/>
	</g>
</g>
</svg>
