<?xml version="1.0" encoding="utf-8"?>
<!-- Generator: Adobe Illustrator 19.0.0, SVG Export Plug-In . SVG Version: 6.00 Build 0)  -->
<svg version="1.1" id="Layer_1" xmlns="http://www.w3.org/2000/svg" xmlns:xlink="http://www.w3.org/1999/xlink" x="0px" y="0px"
	 width="40.4px" height="23.8px" viewBox="-459 269.2 40.4 23.8" style="enable-background:new -459 269.2 40.4 23.8;"
	 xml:space="preserve">
<style type="text/css">
	.st0{fill:#C0392B;}
	.st1{enable-background:new    ;}
	.st2{fill:#FFFFFF;}
	.st3{display:none;fill:#FFFFFF;enable-background:new    ;}
	.st4{font-family:'Roboto-Bold';}
	.st5{font-size:14.1223px;}
	.st6{display:none;enable-background:new    ;}
	.st7{display:inline;fill:#FFFFFF;}
</style>
<polygon id="XMLID_14_" class="st0" points="-458.7,269.2 -452.3,293 -418.6,293 -418.6,269.2 "/>
<g class="st1">
	<path class="st2" d="M-450.3,276.5c0-0.3-0.1-0.5-0.3-0.6c-0.2-0.1-0.5-0.3-1.1-0.5c-0.5-0.2-0.9-0.3-1.2-0.5
		c-0.8-0.4-1.2-1-1.2-1.8c0-0.4,0.1-0.7,0.3-1c0.2-0.3,0.5-0.5,0.9-0.7s0.9-0.3,1.4-0.3c0.5,0,1,0.1,1.4,0.3
		c0.4,0.2,0.7,0.4,0.9,0.8s0.3,0.7,0.3,1.1h-1.5c0-0.3-0.1-0.6-0.3-0.8c-0.2-0.2-0.5-0.3-0.9-0.3c-0.4,0-0.6,0.1-0.8,0.2
		c-0.2,0.2-0.3,0.4-0.3,0.6c0,0.2,0.1,0.4,0.3,0.6s0.6,0.3,1,0.4c0.8,0.3,1.4,0.6,1.8,0.9s0.6,0.8,0.6,1.4c0,0.6-0.2,1.1-0.7,1.4
		c-0.5,0.4-1.1,0.5-1.9,0.5c-0.5,0-1-0.1-1.5-0.3c-0.4-0.2-0.8-0.5-1-0.8s-0.4-0.8-0.4-1.2h1.5c0,0.8,0.5,1.2,1.4,1.2
		c0.3,0,0.6-0.1,0.8-0.2C-450.4,277-450.3,276.8-450.3,276.5z"/>
	<path class="st2" d="M-443.9,276.9h-2.6l-0.5,1.5h-1.6l2.6-7.1h1.4l2.7,7.1h-1.6L-443.9,276.9z M-446,275.7h1.8l-0.9-2.7
		L-446,275.7z"/>
	<path class="st2" d="M-439.7,277.2h3.1v1.2h-4.6v-7.1h1.5V277.2z"/>
	<path class="st2" d="M-431.5,275.3h-2.8v1.9h3.3v1.2h-4.8v-7.1h4.8v1.2h-3.3v1.7h2.8V275.3z"/>
</g>
<text transform="matrix(1 0 0 1 -447.5754 290.5447)" class="st3 st4 st5">20%</text>
<text transform="matrix(1 0 0 1 -444.5754 290.5447)" class="st3 st4 st5">5%</text>
<g id="_x33_0" class="st6">
	<path class="st7" d="M-444.9,284.6h1.1c0.5,0,0.9-0.1,1.1-0.4s0.4-0.6,0.4-1c0-0.4-0.1-0.7-0.4-0.9s-0.6-0.3-1-0.3
		c-0.4,0-0.7,0.1-1,0.3c-0.3,0.2-0.4,0.5-0.4,0.8h-2c0-0.5,0.1-1,0.4-1.4s0.7-0.7,1.2-1c0.5-0.2,1.1-0.4,1.7-0.4
		c1.1,0,1.9,0.3,2.5,0.8c0.6,0.5,0.9,1.2,0.9,2.1c0,0.5-0.1,0.9-0.4,1.3c-0.3,0.4-0.6,0.7-1.1,0.9c0.6,0.2,1,0.5,1.3,0.9
		c0.3,0.4,0.4,0.9,0.4,1.4c0,0.9-0.3,1.6-1,2.1s-1.5,0.8-2.6,0.8c-1,0-1.8-0.3-2.5-0.8c-0.6-0.5-1-1.2-1-2.1h2
		c0,0.4,0.1,0.7,0.4,0.9s0.6,0.4,1,0.4c0.5,0,0.8-0.1,1.1-0.4c0.3-0.3,0.4-0.6,0.4-1c0-1-0.6-1.5-1.7-1.5h-1.1V284.6z"/>
	<path class="st7" d="M-432,286.4c0,1.4-0.3,2.5-0.9,3.2c-0.6,0.7-1.4,1.1-2.5,1.1c-1.1,0-1.9-0.4-2.5-1.1c-0.6-0.7-0.9-1.8-0.9-3.1
		v-1.8c0-1.4,0.3-2.5,0.9-3.2c0.6-0.7,1.4-1.1,2.5-1.1c1.1,0,1.9,0.4,2.5,1.1s0.9,1.8,0.9,3.1V286.4z M-434,284.4
		c0-0.8-0.1-1.4-0.3-1.8s-0.6-0.6-1.1-0.6c-0.5,0-0.8,0.2-1,0.5c-0.2,0.4-0.3,0.9-0.4,1.7v2.4c0,0.8,0.1,1.4,0.3,1.8
		c0.2,0.4,0.6,0.6,1.1,0.6c0.5,0,0.8-0.2,1.1-0.6s0.3-1,0.3-1.8V284.4z"/>
	<path class="st7" d="M-430.7,282.4c0-0.6,0.2-1.1,0.6-1.5c0.4-0.4,0.9-0.6,1.6-0.6c0.7,0,1.2,0.2,1.6,0.6c0.4,0.4,0.6,0.9,0.6,1.5
		v0.5c0,0.6-0.2,1.1-0.6,1.5c-0.4,0.4-0.9,0.6-1.6,0.6c-0.7,0-1.2-0.2-1.6-0.6c-0.4-0.4-0.6-0.9-0.6-1.5V282.4z M-429.4,283
		c0,0.3,0.1,0.5,0.2,0.7c0.2,0.2,0.4,0.3,0.6,0.3c0.3,0,0.5-0.1,0.6-0.3s0.2-0.4,0.2-0.7v-0.5c0-0.3-0.1-0.5-0.2-0.7
		c-0.2-0.2-0.4-0.3-0.6-0.3c-0.3,0-0.5,0.1-0.6,0.3s-0.2,0.4-0.2,0.7V283z M-428.1,289.8l-1-0.5l4.9-7.8l1,0.5L-428.1,289.8z
		 M-425.9,288.1c0-0.6,0.2-1.1,0.6-1.5c0.4-0.4,0.9-0.6,1.6-0.6c0.7,0,1.2,0.2,1.6,0.6c0.4,0.4,0.6,0.9,0.6,1.5v0.5
		c0,0.6-0.2,1.1-0.6,1.5c-0.4,0.4-0.9,0.6-1.6,0.6c-0.7,0-1.2-0.2-1.6-0.6c-0.4-0.4-0.6-0.9-0.6-1.5V288.1z M-424.6,288.6
		c0,0.3,0.1,0.5,0.2,0.7c0.2,0.2,0.4,0.3,0.6,0.3c0.6,0,0.8-0.3,0.8-0.9v-0.5c0-0.3-0.1-0.5-0.2-0.7c-0.2-0.2-0.4-0.3-0.6-0.3
		s-0.5,0.1-0.6,0.3c-0.2,0.2-0.2,0.4-0.2,0.7V288.6z"/>
</g>
<g id="_x32_5" class="st6">
	<path class="st7" d="M-440,290.5h-6.9v-1.4l3.2-3.5c0.4-0.5,0.8-0.9,1-1.3s0.3-0.7,0.3-1c0-0.4-0.1-0.8-0.3-1.1s-0.5-0.4-1-0.4
		c-0.5,0-0.8,0.2-1.1,0.5c-0.3,0.3-0.4,0.7-0.4,1.2h-2c0-0.6,0.1-1.2,0.4-1.7s0.7-0.9,1.2-1.2s1.1-0.4,1.8-0.4c1,0,1.8,0.2,2.4,0.7
		c0.6,0.5,0.9,1.2,0.9,2.1c0,0.5-0.1,1-0.4,1.5c-0.3,0.5-0.7,1.1-1.3,1.8l-2.3,2.4h4.3V290.5z"/>
	<path class="st7" d="M-432,286.4c0,1.4-0.3,2.5-0.9,3.2c-0.6,0.7-1.4,1.1-2.5,1.1c-1.1,0-1.9-0.4-2.5-1.1c-0.6-0.7-0.9-1.8-0.9-3.1
		v-1.8c0-1.4,0.3-2.5,0.9-3.2c0.6-0.7,1.4-1.1,2.5-1.1c1.1,0,1.9,0.4,2.5,1.1s0.9,1.8,0.9,3.1V286.4z M-434,284.4
		c0-0.8-0.1-1.4-0.3-1.8s-0.6-0.6-1.1-0.6c-0.5,0-0.8,0.2-1,0.5c-0.2,0.4-0.3,0.9-0.4,1.7v2.4c0,0.8,0.1,1.4,0.3,1.8
		c0.2,0.4,0.6,0.6,1.1,0.6c0.5,0,0.8-0.2,1.1-0.6s0.3-1,0.3-1.8V284.4z"/>
	<path class="st7" d="M-430.7,282.4c0-0.6,0.2-1.1,0.6-1.5c0.4-0.4,0.9-0.6,1.6-0.6c0.7,0,1.2,0.2,1.6,0.6c0.4,0.4,0.6,0.9,0.6,1.5
		v0.5c0,0.6-0.2,1.1-0.6,1.5c-0.4,0.4-0.9,0.6-1.6,0.6c-0.7,0-1.2-0.2-1.6-0.6c-0.4-0.4-0.6-0.9-0.6-1.5V282.4z M-429.4,283
		c0,0.3,0.1,0.5,0.2,0.7c0.2,0.2,0.4,0.3,0.6,0.3c0.3,0,0.5-0.1,0.6-0.3s0.2-0.4,0.2-0.7v-0.5c0-0.3-0.1-0.5-0.2-0.7
		c-0.2-0.2-0.4-0.3-0.6-0.3c-0.3,0-0.5,0.1-0.6,0.3s-0.2,0.4-0.2,0.7V283z M-428.1,289.8l-1-0.5l4.9-7.8l1,0.5L-428.1,289.8z
		 M-425.9,288.1c0-0.6,0.2-1.1,0.6-1.5c0.4-0.4,0.9-0.6,1.6-0.6c0.7,0,1.2,0.2,1.6,0.6c0.4,0.4,0.6,0.9,0.6,1.5v0.5
		c0,0.6-0.2,1.1-0.6,1.5c-0.4,0.4-0.9,0.6-1.6,0.6c-0.7,0-1.2-0.2-1.6-0.6c-0.4-0.4-0.6-0.9-0.6-1.5V288.1z M-424.6,288.6
		c0,0.3,0.1,0.5,0.2,0.7c0.2,0.2,0.4,0.3,0.6,0.3c0.6,0,0.8-0.3,0.8-0.9v-0.5c0-0.3-0.1-0.5-0.2-0.7c-0.2-0.2-0.4-0.3-0.6-0.3
		s-0.5,0.1-0.6,0.3c-0.2,0.2-0.2,0.4-0.2,0.7V288.6z"/>
</g>
<g id="_x31_5" class="st1">
	<path class="st2" d="M-442.1,290.5h-2v-7.7l-2.4,0.7V282l4.2-1.5h0.2V290.5z"/>
	<path class="st2" d="M-438.5,285.6l0.6-5.1h5.6v1.7h-4l-0.2,2.2c0.5-0.3,1-0.4,1.5-0.4c1,0,1.7,0.3,2.2,0.9
		c0.5,0.6,0.8,1.4,0.8,2.5c0,0.6-0.1,1.2-0.4,1.7c-0.3,0.5-0.7,0.9-1.2,1.2c-0.5,0.3-1.1,0.4-1.8,0.4c-0.6,0-1.2-0.1-1.7-0.4
		c-0.5-0.2-0.9-0.6-1.2-1c-0.3-0.4-0.5-1-0.5-1.5h2c0,0.4,0.2,0.7,0.4,1c0.3,0.2,0.6,0.3,1,0.3c0.5,0,0.8-0.2,1-0.5
		c0.2-0.3,0.4-0.8,0.4-1.4c0-0.6-0.1-1-0.4-1.3s-0.7-0.5-1.2-0.5c-0.5,0-0.9,0.1-1.2,0.4l-0.2,0.2L-438.5,285.6z"/>
	<path class="st2" d="M-430.7,282.4c0-0.6,0.2-1.1,0.6-1.5c0.4-0.4,0.9-0.6,1.6-0.6c0.7,0,1.2,0.2,1.6,0.6c0.4,0.4,0.6,0.9,0.6,1.5
		v0.5c0,0.6-0.2,1.1-0.6,1.5c-0.4,0.4-0.9,0.6-1.6,0.6c-0.7,0-1.2-0.2-1.6-0.6c-0.4-0.4-0.6-0.9-0.6-1.5V282.4z M-429.4,283
		c0,0.3,0.1,0.5,0.2,0.7c0.2,0.2,0.4,0.3,0.6,0.3c0.3,0,0.5-0.1,0.6-0.3s0.2-0.4,0.2-0.7v-0.5c0-0.3-0.1-0.5-0.2-0.7
		c-0.2-0.2-0.4-0.3-0.6-0.3c-0.3,0-0.5,0.1-0.6,0.3s-0.2,0.4-0.2,0.7V283z M-428.1,289.8l-1-0.5l4.9-7.8l1,0.5L-428.1,289.8z
		 M-425.9,288.1c0-0.6,0.2-1.1,0.6-1.5c0.4-0.4,0.9-0.6,1.6-0.6c0.7,0,1.2,0.2,1.6,0.6c0.4,0.4,0.6,0.9,0.6,1.5v0.5
		c0,0.6-0.2,1.1-0.6,1.5c-0.4,0.4-0.9,0.6-1.6,0.6c-0.7,0-1.2-0.2-1.6-0.6c-0.4-0.4-0.6-0.9-0.6-1.5V288.1z M-424.6,288.6
		c0,0.3,0.1,0.5,0.2,0.7c0.2,0.2,0.4,0.3,0.6,0.3c0.6,0,0.8-0.3,0.8-0.9v-0.5c0-0.3-0.1-0.5-0.2-0.7c-0.2-0.2-0.4-0.3-0.6-0.3
		s-0.5,0.1-0.6,0.3c-0.2,0.2-0.2,0.4-0.2,0.7V288.6z"/>
</g>
<g id="_x31_0" class="st6">
	<path class="st7" d="M-442.1,290.5h-2v-7.7l-2.4,0.7V282l4.2-1.5h0.2V290.5z"/>
	<path class="st7" d="M-432,286.4c0,1.4-0.3,2.5-0.9,3.2c-0.6,0.7-1.4,1.1-2.5,1.1c-1.1,0-1.9-0.4-2.5-1.1c-0.6-0.7-0.9-1.8-0.9-3.1
		v-1.8c0-1.4,0.3-2.5,0.9-3.2c0.6-0.7,1.4-1.1,2.5-1.1c1.1,0,1.9,0.4,2.5,1.1s0.9,1.8,0.9,3.1V286.4z M-434,284.4
		c0-0.8-0.1-1.4-0.3-1.8s-0.6-0.6-1.1-0.6c-0.5,0-0.8,0.2-1,0.5c-0.2,0.4-0.3,0.9-0.4,1.7v2.4c0,0.8,0.1,1.4,0.3,1.8
		c0.2,0.4,0.6,0.6,1.1,0.6c0.5,0,0.8-0.2,1.1-0.6s0.3-1,0.3-1.8V284.4z"/>
	<path class="st7" d="M-430.7,282.4c0-0.6,0.2-1.1,0.6-1.5c0.4-0.4,0.9-0.6,1.6-0.6c0.7,0,1.2,0.2,1.6,0.6c0.4,0.4,0.6,0.9,0.6,1.5
		v0.5c0,0.6-0.2,1.1-0.6,1.5c-0.4,0.4-0.9,0.6-1.6,0.6c-0.7,0-1.2-0.2-1.6-0.6c-0.4-0.4-0.6-0.9-0.6-1.5V282.4z M-429.4,283
		c0,0.3,0.1,0.5,0.2,0.7c0.2,0.2,0.4,0.3,0.6,0.3c0.3,0,0.5-0.1,0.6-0.3s0.2-0.4,0.2-0.7v-0.5c0-0.3-0.1-0.5-0.2-0.7
		c-0.2-0.2-0.4-0.3-0.6-0.3c-0.3,0-0.5,0.1-0.6,0.3s-0.2,0.4-0.2,0.7V283z M-428.1,289.8l-1-0.5l4.9-7.8l1,0.5L-428.1,289.8z
		 M-425.9,288.1c0-0.6,0.2-1.1,0.6-1.5c0.4-0.4,0.9-0.6,1.6-0.6c0.7,0,1.2,0.2,1.6,0.6c0.4,0.4,0.6,0.9,0.6,1.5v0.5
		c0,0.6-0.2,1.1-0.6,1.5c-0.4,0.4-0.9,0.6-1.6,0.6c-0.7,0-1.2-0.2-1.6-0.6c-0.4-0.4-0.6-0.9-0.6-1.5V288.1z M-424.6,288.6
		c0,0.3,0.1,0.5,0.2,0.7c0.2,0.2,0.4,0.3,0.6,0.3c0.6,0,0.8-0.3,0.8-0.9v-0.5c0-0.3-0.1-0.5-0.2-0.7c-0.2-0.2-0.4-0.3-0.6-0.3
		s-0.5,0.1-0.6,0.3c-0.2,0.2-0.2,0.4-0.2,0.7V288.6z"/>
</g>
<g id="_x35_" class="st6">
	<path class="st7" d="M-443.6,285.6l0.6-5.1h5.6v1.7h-4l-0.2,2.2c0.5-0.3,1-0.4,1.5-0.4c1,0,1.7,0.3,2.2,0.9
		c0.5,0.6,0.8,1.4,0.8,2.5c0,0.6-0.1,1.2-0.4,1.7c-0.3,0.5-0.7,0.9-1.2,1.2c-0.5,0.3-1.1,0.4-1.8,0.4c-0.6,0-1.2-0.1-1.7-0.4
		c-0.5-0.2-0.9-0.6-1.2-1c-0.3-0.4-0.5-1-0.5-1.5h2c0,0.4,0.2,0.7,0.4,1c0.3,0.2,0.6,0.3,1,0.3c0.5,0,0.8-0.2,1-0.5s0.4-0.8,0.4-1.4
		c0-0.6-0.1-1-0.4-1.3c-0.3-0.3-0.7-0.5-1.2-0.5c-0.5,0-0.9,0.1-1.2,0.4l-0.2,0.2L-443.6,285.6z"/>
	<path class="st7" d="M-435.8,282.4c0-0.6,0.2-1.1,0.6-1.5c0.4-0.4,0.9-0.6,1.6-0.6c0.7,0,1.2,0.2,1.6,0.6c0.4,0.4,0.6,0.9,0.6,1.5
		v0.5c0,0.6-0.2,1.1-0.6,1.5c-0.4,0.4-0.9,0.6-1.6,0.6c-0.7,0-1.2-0.2-1.6-0.6c-0.4-0.4-0.6-0.9-0.6-1.5V282.4z M-434.5,283
		c0,0.3,0.1,0.5,0.2,0.7s0.4,0.3,0.6,0.3s0.5-0.1,0.6-0.3c0.2-0.2,0.2-0.4,0.2-0.7v-0.5c0-0.3-0.1-0.5-0.2-0.7
		c-0.2-0.2-0.4-0.3-0.6-0.3c-0.3,0-0.5,0.1-0.6,0.3s-0.2,0.4-0.2,0.7V283z M-433.2,289.8l-1-0.5l4.9-7.8l1,0.5L-433.2,289.8z
		 M-431,288.1c0-0.6,0.2-1.1,0.6-1.5c0.4-0.4,0.9-0.6,1.6-0.6c0.7,0,1.2,0.2,1.6,0.6c0.4,0.4,0.6,0.9,0.6,1.5v0.5
		c0,0.6-0.2,1.1-0.6,1.5c-0.4,0.4-0.9,0.6-1.6,0.6c-0.7,0-1.2-0.2-1.6-0.6c-0.4-0.4-0.6-0.9-0.6-1.5V288.1z M-429.7,288.6
		c0,0.3,0.1,0.5,0.2,0.7c0.2,0.2,0.4,0.3,0.6,0.3c0.6,0,0.8-0.3,0.8-0.9v-0.5c0-0.3-0.1-0.5-0.2-0.7c-0.2-0.2-0.4-0.3-0.6-0.3
		c-0.3,0-0.5,0.1-0.6,0.3c-0.2,0.2-0.2,0.4-0.2,0.7V288.6z"/>
</g>
</svg>
