<?xml version="1.0" encoding="utf-8"?>
<!-- Generator: Adobe Illustrator 19.0.0, SVG Export Plug-In . SVG Version: 6.00 Build 0)  -->
<svg version="1.1" id="Layer_1" xmlns="http://www.w3.org/2000/svg" xmlns:xlink="http://www.w3.org/1999/xlink" x="0px" y="0px"
	 width="40.4px" height="23.8px" viewBox="-459 269.2 40.4 23.8" style="enable-background:new -459 269.2 40.4 23.8;"
	 xml:space="preserve">
<style type="text/css">
	.st0{fill:#C0392B;}
	.st1{display:none;enable-background:new    ;}
	.st2{display:inline;fill:#FFFFFF;}
</style>
<polygon id="XMLID_14_" class="st0" points="-917.7,538.4 -911.3,562.2 -877.6,562.2 -877.6,538.4 "/>
<g class="st1">
	<path class="st2" d="M-909.3,545.7c0-0.3-0.1-0.5-0.3-0.6c-0.2-0.1-0.5-0.3-1.1-0.5c-0.5-0.2-0.9-0.3-1.2-0.5
		c-0.8-0.4-1.2-1-1.2-1.8c0-0.4,0.1-0.7,0.3-1c0.2-0.3,0.5-0.5,0.9-0.7c0.4-0.2,0.9-0.3,1.4-0.3s1,0.1,1.4,0.3
		c0.4,0.2,0.7,0.4,0.9,0.8c0.2,0.4,0.3,0.7,0.3,1.1h-1.5c0-0.3-0.1-0.6-0.3-0.8c-0.2-0.2-0.5-0.3-0.9-0.3s-0.6,0.1-0.8,0.2
		c-0.2,0.2-0.3,0.4-0.3,0.6c0,0.2,0.1,0.4,0.3,0.6s0.6,0.3,1,0.4c0.8,0.3,1.4,0.6,1.8,0.9s0.6,0.8,0.6,1.4c0,0.6-0.2,1.1-0.7,1.4
		c-0.5,0.4-1.1,0.5-1.9,0.5c-0.5,0-1-0.1-1.5-0.3c-0.4-0.2-0.8-0.5-1-0.8s-0.4-0.8-0.4-1.2h1.5c0,0.8,0.5,1.2,1.4,1.2
		c0.3,0,0.6-0.1,0.8-0.2C-909.4,546.2-909.3,546-909.3,545.7z"/>
	<path class="st2" d="M-902.9,546.1h-2.6l-0.5,1.5h-1.6l2.6-7.1h1.4l2.7,7.1h-1.6L-902.9,546.1z M-905,544.9h1.8l-0.9-2.7
		L-905,544.9z"/>
	<path class="st2" d="M-898.7,546.4h3.1v1.2h-4.6v-7.1h1.5V546.4z"/>
	<path class="st2" d="M-890.5,544.5h-2.8v1.9h3.3v1.2h-4.8v-7.1h4.8v1.2h-3.3v1.7h2.8V544.5z"/>
</g>
<text transform="matrix(1 0 0 1 -906.5754 559.7448)" style="display:none;fill:#FFFFFF;enable-background:new    ; font-family:'Roboto-Bold'; font-size:14.1223px;">20%</text>
<text transform="matrix(1 0 0 1 -903.5754 559.7448)" style="display:none;fill:#FFFFFF;enable-background:new    ; font-family:'Roboto-Bold'; font-size:14.1223px;">5%</text>
<g id="_x33_0" class="st1">
	<path class="st2" d="M-903.9,553.8h1.1c0.5,0,0.9-0.1,1.1-0.4c0.2-0.3,0.4-0.6,0.4-1s-0.1-0.7-0.4-0.9c-0.3-0.2-0.6-0.3-1-0.3
		c-0.4,0-0.7,0.1-1,0.3c-0.3,0.2-0.4,0.5-0.4,0.8h-2c0-0.5,0.1-1,0.4-1.4c0.3-0.4,0.7-0.7,1.2-1c0.5-0.2,1.1-0.4,1.7-0.4
		c1.1,0,1.9,0.3,2.5,0.8c0.6,0.5,0.9,1.2,0.9,2.1c0,0.5-0.1,0.9-0.4,1.3c-0.3,0.4-0.6,0.7-1.1,0.9c0.6,0.2,1,0.5,1.3,0.9
		s0.4,0.9,0.4,1.4c0,0.9-0.3,1.6-1,2.1c-0.7,0.5-1.5,0.8-2.6,0.8c-1,0-1.8-0.3-2.5-0.8c-0.6-0.5-1-1.2-1-2.1h2
		c0,0.4,0.1,0.7,0.4,0.9c0.3,0.2,0.6,0.4,1,0.4c0.5,0,0.8-0.1,1.1-0.4s0.4-0.6,0.4-1c0-1-0.6-1.5-1.7-1.5h-1.1v-1.5H-903.9z"/>
	<path class="st2" d="M-891,555.6c0,1.4-0.3,2.5-0.9,3.2c-0.6,0.7-1.4,1.1-2.5,1.1c-1.1,0-1.9-0.4-2.5-1.1c-0.6-0.7-0.9-1.8-0.9-3.1
		v-1.8c0-1.4,0.3-2.5,0.9-3.2c0.6-0.7,1.4-1.1,2.5-1.1c1.1,0,1.9,0.4,2.5,1.1c0.6,0.7,0.9,1.8,0.9,3.1V555.6z M-893,553.6
		c0-0.8-0.1-1.4-0.3-1.8c-0.2-0.4-0.6-0.6-1.1-0.6s-0.8,0.2-1,0.5c-0.2,0.4-0.3,0.9-0.4,1.7v2.4c0,0.8,0.1,1.4,0.3,1.8
		c0.2,0.4,0.6,0.6,1.1,0.6s0.8-0.2,1.1-0.6c0.3-0.4,0.3-1,0.3-1.8V553.6z"/>
	<path class="st2" d="M-889.7,551.6c0-0.6,0.2-1.1,0.6-1.5c0.4-0.4,0.9-0.6,1.6-0.6s1.2,0.2,1.6,0.6c0.4,0.4,0.6,0.9,0.6,1.5v0.5
		c0,0.6-0.2,1.1-0.6,1.5c-0.4,0.4-0.9,0.6-1.6,0.6s-1.2-0.2-1.6-0.6c-0.4-0.4-0.6-0.9-0.6-1.5V551.6z M-888.4,552.2
		c0,0.3,0.1,0.5,0.2,0.7c0.2,0.2,0.4,0.3,0.6,0.3c0.3,0,0.5-0.1,0.6-0.3c0.1-0.2,0.2-0.4,0.2-0.7v-0.5c0-0.3-0.1-0.5-0.2-0.7
		c-0.2-0.2-0.4-0.3-0.6-0.3c-0.3,0-0.5,0.1-0.6,0.3c-0.1,0.2-0.2,0.4-0.2,0.7V552.2z M-887.1,559l-1-0.5l4.9-7.8l1,0.5L-887.1,559z
		 M-884.9,557.3c0-0.6,0.2-1.1,0.6-1.5c0.4-0.4,0.9-0.6,1.6-0.6c0.7,0,1.2,0.2,1.6,0.6c0.4,0.4,0.6,0.9,0.6,1.5v0.5
		c0,0.6-0.2,1.1-0.6,1.5c-0.4,0.4-0.9,0.6-1.6,0.6c-0.7,0-1.2-0.2-1.6-0.6c-0.4-0.4-0.6-0.9-0.6-1.5V557.3z M-883.6,557.8
		c0,0.3,0.1,0.5,0.2,0.7c0.2,0.2,0.4,0.3,0.6,0.3c0.6,0,0.8-0.3,0.8-0.9v-0.5c0-0.3-0.1-0.5-0.2-0.7c-0.2-0.2-0.4-0.3-0.6-0.3
		c-0.2,0-0.5,0.1-0.6,0.3c-0.2,0.2-0.2,0.4-0.2,0.7L-883.6,557.8L-883.6,557.8z"/>
</g>
<g id="_x32_5" class="st1">
	<path class="st2" d="M-899,559.7h-6.9v-1.4l3.2-3.5c0.4-0.5,0.8-0.9,1-1.3c0.2-0.4,0.3-0.7,0.3-1c0-0.4-0.1-0.8-0.3-1.1
		c-0.2-0.3-0.5-0.4-1-0.4s-0.8,0.2-1.1,0.5c-0.3,0.3-0.4,0.7-0.4,1.2h-2c0-0.6,0.1-1.2,0.4-1.7s0.7-0.9,1.2-1.2
		c0.5-0.3,1.1-0.4,1.8-0.4c1,0,1.8,0.2,2.4,0.7c0.6,0.5,0.9,1.2,0.9,2.1c0,0.5-0.1,1-0.4,1.5c-0.3,0.5-0.7,1.1-1.3,1.8l-2.3,2.4h4.3
		v1.8H-899z"/>
	<path class="st2" d="M-891,555.6c0,1.4-0.3,2.5-0.9,3.2c-0.6,0.7-1.4,1.1-2.5,1.1c-1.1,0-1.9-0.4-2.5-1.1c-0.6-0.7-0.9-1.8-0.9-3.1
		v-1.8c0-1.4,0.3-2.5,0.9-3.2c0.6-0.7,1.4-1.1,2.5-1.1c1.1,0,1.9,0.4,2.5,1.1c0.6,0.7,0.9,1.8,0.9,3.1V555.6z M-893,553.6
		c0-0.8-0.1-1.4-0.3-1.8c-0.2-0.4-0.6-0.6-1.1-0.6s-0.8,0.2-1,0.5c-0.2,0.4-0.3,0.9-0.4,1.7v2.4c0,0.8,0.1,1.4,0.3,1.8
		c0.2,0.4,0.6,0.6,1.1,0.6s0.8-0.2,1.1-0.6c0.3-0.4,0.3-1,0.3-1.8V553.6z"/>
	<path class="st2" d="M-889.7,551.6c0-0.6,0.2-1.1,0.6-1.5c0.4-0.4,0.9-0.6,1.6-0.6s1.2,0.2,1.6,0.6c0.4,0.4,0.6,0.9,0.6,1.5v0.5
		c0,0.6-0.2,1.1-0.6,1.5c-0.4,0.4-0.9,0.6-1.6,0.6s-1.2-0.2-1.6-0.6c-0.4-0.4-0.6-0.9-0.6-1.5V551.6z M-888.4,552.2
		c0,0.3,0.1,0.5,0.2,0.7c0.2,0.2,0.4,0.3,0.6,0.3c0.3,0,0.5-0.1,0.6-0.3c0.1-0.2,0.2-0.4,0.2-0.7v-0.5c0-0.3-0.1-0.5-0.2-0.7
		c-0.2-0.2-0.4-0.3-0.6-0.3c-0.3,0-0.5,0.1-0.6,0.3c-0.1,0.2-0.2,0.4-0.2,0.7V552.2z M-887.1,559l-1-0.5l4.9-7.8l1,0.5L-887.1,559z
		 M-884.9,557.3c0-0.6,0.2-1.1,0.6-1.5c0.4-0.4,0.9-0.6,1.6-0.6c0.7,0,1.2,0.2,1.6,0.6c0.4,0.4,0.6,0.9,0.6,1.5v0.5
		c0,0.6-0.2,1.1-0.6,1.5c-0.4,0.4-0.9,0.6-1.6,0.6c-0.7,0-1.2-0.2-1.6-0.6c-0.4-0.4-0.6-0.9-0.6-1.5V557.3z M-883.6,557.8
		c0,0.3,0.1,0.5,0.2,0.7c0.2,0.2,0.4,0.3,0.6,0.3c0.6,0,0.8-0.3,0.8-0.9v-0.5c0-0.3-0.1-0.5-0.2-0.7c-0.2-0.2-0.4-0.3-0.6-0.3
		c-0.2,0-0.5,0.1-0.6,0.3c-0.2,0.2-0.2,0.4-0.2,0.7L-883.6,557.8L-883.6,557.8z"/>
</g>
<g id="_x31_5" class="st1">
	<path class="st2" d="M-901.1,559.7h-2V552l-2.4,0.7v-1.5l4.2-1.5h0.2V559.7L-901.1,559.7z"/>
	<path class="st2" d="M-897.5,554.8l0.6-5.1h5.6v1.7h-4l-0.2,2.2c0.5-0.3,1-0.4,1.5-0.4c1,0,1.7,0.3,2.2,0.9s0.8,1.4,0.8,2.5
		c0,0.6-0.1,1.2-0.4,1.7c-0.3,0.5-0.7,0.9-1.2,1.2s-1.1,0.4-1.8,0.4c-0.6,0-1.2-0.1-1.7-0.4c-0.5-0.2-0.9-0.6-1.2-1
		c-0.3-0.4-0.5-1-0.5-1.5h2c0,0.4,0.2,0.7,0.4,1c0.3,0.2,0.6,0.3,1,0.3c0.5,0,0.8-0.2,1-0.5s0.4-0.8,0.4-1.4c0-0.6-0.1-1-0.4-1.3
		c-0.3-0.3-0.7-0.5-1.2-0.5s-0.9,0.1-1.2,0.4l-0.2,0.2L-897.5,554.8z"/>
	<path class="st2" d="M-889.7,551.6c0-0.6,0.2-1.1,0.6-1.5c0.4-0.4,0.9-0.6,1.6-0.6s1.2,0.2,1.6,0.6c0.4,0.4,0.6,0.9,0.6,1.5v0.5
		c0,0.6-0.2,1.1-0.6,1.5c-0.4,0.4-0.9,0.6-1.6,0.6s-1.2-0.2-1.6-0.6c-0.4-0.4-0.6-0.9-0.6-1.5V551.6z M-888.4,552.2
		c0,0.3,0.1,0.5,0.2,0.7c0.2,0.2,0.4,0.3,0.6,0.3c0.3,0,0.5-0.1,0.6-0.3c0.1-0.2,0.2-0.4,0.2-0.7v-0.5c0-0.3-0.1-0.5-0.2-0.7
		c-0.2-0.2-0.4-0.3-0.6-0.3c-0.3,0-0.5,0.1-0.6,0.3c-0.1,0.2-0.2,0.4-0.2,0.7V552.2z M-887.1,559l-1-0.5l4.9-7.8l1,0.5L-887.1,559z
		 M-884.9,557.3c0-0.6,0.2-1.1,0.6-1.5c0.4-0.4,0.9-0.6,1.6-0.6c0.7,0,1.2,0.2,1.6,0.6c0.4,0.4,0.6,0.9,0.6,1.5v0.5
		c0,0.6-0.2,1.1-0.6,1.5c-0.4,0.4-0.9,0.6-1.6,0.6c-0.7,0-1.2-0.2-1.6-0.6c-0.4-0.4-0.6-0.9-0.6-1.5V557.3z M-883.6,557.8
		c0,0.3,0.1,0.5,0.2,0.7c0.2,0.2,0.4,0.3,0.6,0.3c0.6,0,0.8-0.3,0.8-0.9v-0.5c0-0.3-0.1-0.5-0.2-0.7c-0.2-0.2-0.4-0.3-0.6-0.3
		c-0.2,0-0.5,0.1-0.6,0.3c-0.2,0.2-0.2,0.4-0.2,0.7L-883.6,557.8L-883.6,557.8z"/>
</g>
<g id="_x31_0" class="st1">
	<path class="st2" d="M-901.1,559.7h-2V552l-2.4,0.7v-1.5l4.2-1.5h0.2V559.7L-901.1,559.7z"/>
	<path class="st2" d="M-891,555.6c0,1.4-0.3,2.5-0.9,3.2c-0.6,0.7-1.4,1.1-2.5,1.1c-1.1,0-1.9-0.4-2.5-1.1c-0.6-0.7-0.9-1.8-0.9-3.1
		v-1.8c0-1.4,0.3-2.5,0.9-3.2c0.6-0.7,1.4-1.1,2.5-1.1c1.1,0,1.9,0.4,2.5,1.1c0.6,0.7,0.9,1.8,0.9,3.1V555.6z M-893,553.6
		c0-0.8-0.1-1.4-0.3-1.8c-0.2-0.4-0.6-0.6-1.1-0.6s-0.8,0.2-1,0.5c-0.2,0.4-0.3,0.9-0.4,1.7v2.4c0,0.8,0.1,1.4,0.3,1.8
		c0.2,0.4,0.6,0.6,1.1,0.6s0.8-0.2,1.1-0.6c0.3-0.4,0.3-1,0.3-1.8V553.6z"/>
	<path class="st2" d="M-889.7,551.6c0-0.6,0.2-1.1,0.6-1.5c0.4-0.4,0.9-0.6,1.6-0.6s1.2,0.2,1.6,0.6c0.4,0.4,0.6,0.9,0.6,1.5v0.5
		c0,0.6-0.2,1.1-0.6,1.5c-0.4,0.4-0.9,0.6-1.6,0.6s-1.2-0.2-1.6-0.6c-0.4-0.4-0.6-0.9-0.6-1.5V551.6z M-888.4,552.2
		c0,0.3,0.1,0.5,0.2,0.7c0.2,0.2,0.4,0.3,0.6,0.3c0.3,0,0.5-0.1,0.6-0.3c0.1-0.2,0.2-0.4,0.2-0.7v-0.5c0-0.3-0.1-0.5-0.2-0.7
		c-0.2-0.2-0.4-0.3-0.6-0.3c-0.3,0-0.5,0.1-0.6,0.3c-0.1,0.2-0.2,0.4-0.2,0.7V552.2z M-887.1,559l-1-0.5l4.9-7.8l1,0.5L-887.1,559z
		 M-884.9,557.3c0-0.6,0.2-1.1,0.6-1.5c0.4-0.4,0.9-0.6,1.6-0.6c0.7,0,1.2,0.2,1.6,0.6c0.4,0.4,0.6,0.9,0.6,1.5v0.5
		c0,0.6-0.2,1.1-0.6,1.5c-0.4,0.4-0.9,0.6-1.6,0.6c-0.7,0-1.2-0.2-1.6-0.6c-0.4-0.4-0.6-0.9-0.6-1.5V557.3z M-883.6,557.8
		c0,0.3,0.1,0.5,0.2,0.7c0.2,0.2,0.4,0.3,0.6,0.3c0.6,0,0.8-0.3,0.8-0.9v-0.5c0-0.3-0.1-0.5-0.2-0.7c-0.2-0.2-0.4-0.3-0.6-0.3
		c-0.2,0-0.5,0.1-0.6,0.3c-0.2,0.2-0.2,0.4-0.2,0.7L-883.6,557.8L-883.6,557.8z"/>
</g>
<g id="_x35_" class="st1">
	<path class="st2" d="M-902.6,554.8l0.6-5.1h5.6v1.7h-4l-0.2,2.2c0.5-0.3,1-0.4,1.5-0.4c1,0,1.7,0.3,2.2,0.9s0.8,1.4,0.8,2.5
		c0,0.6-0.1,1.2-0.4,1.7s-0.7,0.9-1.2,1.2s-1.1,0.4-1.8,0.4c-0.6,0-1.2-0.1-1.7-0.4c-0.5-0.2-0.9-0.6-1.2-1c-0.3-0.4-0.5-1-0.5-1.5
		h2c0,0.4,0.2,0.7,0.4,1c0.3,0.2,0.6,0.3,1,0.3c0.5,0,0.8-0.2,1-0.5c0.2-0.3,0.4-0.8,0.4-1.4c0-0.6-0.1-1-0.4-1.3
		c-0.3-0.3-0.7-0.5-1.2-0.5s-0.9,0.1-1.2,0.4l-0.2,0.2L-902.6,554.8z"/>
	<path class="st2" d="M-894.8,551.6c0-0.6,0.2-1.1,0.6-1.5c0.4-0.4,0.9-0.6,1.6-0.6s1.2,0.2,1.6,0.6c0.4,0.4,0.6,0.9,0.6,1.5v0.5
		c0,0.6-0.2,1.1-0.6,1.5c-0.4,0.4-0.9,0.6-1.6,0.6s-1.2-0.2-1.6-0.6c-0.4-0.4-0.6-0.9-0.6-1.5V551.6z M-893.5,552.2
		c0,0.3,0.1,0.5,0.2,0.7s0.4,0.3,0.6,0.3c0.2,0,0.5-0.1,0.6-0.3c0.2-0.2,0.2-0.4,0.2-0.7v-0.5c0-0.3-0.1-0.5-0.2-0.7
		c-0.2-0.2-0.4-0.3-0.6-0.3c-0.3,0-0.5,0.1-0.6,0.3s-0.2,0.4-0.2,0.7V552.2z M-892.2,559l-1-0.5l4.9-7.8l1,0.5L-892.2,559z
		 M-890,557.3c0-0.6,0.2-1.1,0.6-1.5c0.4-0.4,0.9-0.6,1.6-0.6s1.2,0.2,1.6,0.6c0.4,0.4,0.6,0.9,0.6,1.5v0.5c0,0.6-0.2,1.1-0.6,1.5
		c-0.4,0.4-0.9,0.6-1.6,0.6s-1.2-0.2-1.6-0.6c-0.4-0.4-0.6-0.9-0.6-1.5V557.3z M-888.7,557.8c0,0.3,0.1,0.5,0.2,0.7
		c0.2,0.2,0.4,0.3,0.6,0.3c0.6,0,0.8-0.3,0.8-0.9v-0.5c0-0.3-0.1-0.5-0.2-0.7c-0.2-0.2-0.4-0.3-0.6-0.3c-0.3,0-0.5,0.1-0.6,0.3
		c-0.2,0.2-0.2,0.4-0.2,0.7L-888.7,557.8L-888.7,557.8z"/>
</g>
</svg>
