<?xml version="1.0" encoding="utf-8"?>
<!-- Generator: Adobe Illustrator 19.0.0, SVG Export Plug-In . SVG Version: 6.00 Build 0)  -->
<svg version="1.1" id="Layer_1" xmlns="http://www.w3.org/2000/svg" xmlns:xlink="http://www.w3.org/1999/xlink" x="0px" y="0px"
	 width="40.4px" height="23.8px" viewBox="-455.6 270.6 40.4 23.8" style="enable-background:new -455.6 270.6 40.4 23.8;"
	 xml:space="preserve">
<style type="text/css">
	.sold-1{fill:#273746;enable-background:new    ;}
	.sold-2{fill:#FFFFFF;}
</style>
<polygon id="XMLID_14_" class="sold-1" points="-455.3,270.6 -448.9,294.4 -415.2,294.4 -415.2,270.6 "/>
<g>
	<path class="sold-2" d="M-441.3,279.2c0-0.3-0.1-0.5-0.3-0.6s-0.5-0.3-1.1-0.5s-0.9-0.3-1.2-0.5c-0.8-0.4-1.2-1-1.2-1.8
		c0-0.4,0.1-0.7,0.3-1c0.2-0.3,0.5-0.5,0.9-0.7c0.4-0.2,0.9-0.3,1.4-0.3c0.5,0,1,0.1,1.4,0.3s0.7,0.4,0.9,0.8
		c0.2,0.3,0.3,0.7,0.3,1.1h-1.5c0-0.3-0.1-0.6-0.3-0.8s-0.5-0.3-0.9-0.3c-0.4,0-0.6,0.1-0.8,0.2s-0.3,0.4-0.3,0.6
		c0,0.2,0.1,0.4,0.3,0.6c0.2,0.2,0.6,0.3,1,0.4c0.8,0.3,1.4,0.6,1.8,0.9s0.6,0.8,0.6,1.4c0,0.6-0.2,1.1-0.7,1.4s-1.1,0.5-1.9,0.5
		c-0.5,0-1-0.1-1.5-0.3s-0.8-0.5-1-0.8c-0.2-0.3-0.4-0.8-0.4-1.2h1.5c0,0.8,0.5,1.2,1.4,1.2c0.3,0,0.6-0.1,0.8-0.2
		S-441.3,279.4-441.3,279.2z"/>
	<path class="sold-2" d="M-433,277.6c0,0.7-0.1,1.3-0.4,1.8s-0.6,0.9-1.1,1.2c-0.5,0.3-1,0.4-1.6,0.4c-0.6,0-1.1-0.1-1.6-0.4
		s-0.8-0.7-1.1-1.2s-0.4-1.1-0.4-1.8v-0.4c0-0.7,0.1-1.3,0.4-1.8c0.3-0.5,0.6-0.9,1.1-1.2c0.5-0.3,1-0.4,1.6-0.4s1.1,0.1,1.6,0.4
		c0.5,0.3,0.8,0.7,1.1,1.2c0.3,0.5,0.4,1.1,0.4,1.8V277.6z M-434.5,277.3c0-0.7-0.1-1.3-0.4-1.7s-0.6-0.6-1.1-0.6
		c-0.5,0-0.9,0.2-1.1,0.6s-0.4,0.9-0.4,1.7v0.3c0,0.7,0.1,1.3,0.4,1.7s0.7,0.6,1.2,0.6c0.5,0,0.9-0.2,1.1-0.6s0.4-0.9,0.4-1.7V277.3
		z"/>
	<path class="sold-2" d="M-430.5,279.8h3.1v1.2h-4.6v-7.1h1.5V279.8z"/>
	<path class="sold-2" d="M-426.6,281v-7.1h2.2c0.6,0,1.2,0.1,1.7,0.4c0.5,0.3,0.9,0.7,1.2,1.2s0.4,1.1,0.4,1.8v0.3
		c0,0.7-0.1,1.2-0.4,1.8c-0.3,0.5-0.7,0.9-1.2,1.2s-1.1,0.4-1.7,0.4H-426.6z M-425.1,275.1v4.7h0.7c0.6,0,1-0.2,1.3-0.6
		s0.5-0.9,0.5-1.6v-0.4c0-0.7-0.1-1.3-0.4-1.6s-0.7-0.6-1.3-0.6H-425.1z"/>
</g>
<g>
	<path class="sold-2" d="M-437,288c0,0.7-0.1,1.3-0.4,1.8s-0.6,0.9-1.1,1.2c-0.5,0.3-1,0.4-1.6,0.4c-0.6,0-1.1-0.1-1.6-0.4
		s-0.8-0.7-1.1-1.2c-0.3-0.5-0.4-1.1-0.4-1.8v-0.4c0-0.7,0.1-1.3,0.4-1.8c0.3-0.5,0.6-0.9,1.1-1.2c0.5-0.3,1-0.4,1.6-0.4
		s1.1,0.1,1.6,0.4c0.5,0.3,0.8,0.7,1.1,1.2c0.3,0.5,0.4,1.1,0.4,1.8V288z M-438.5,287.6c0-0.7-0.1-1.3-0.4-1.7
		c-0.3-0.4-0.6-0.6-1.1-0.6c-0.5,0-0.9,0.2-1.1,0.6c-0.3,0.4-0.4,0.9-0.4,1.7v0.3c0,0.7,0.1,1.3,0.4,1.7s0.7,0.6,1.2,0.6
		c0.5,0,0.9-0.2,1.1-0.6s0.4-0.9,0.4-1.7V287.6z"/>
	<path class="sold-2" d="M-430.6,284.2v4.7c0,0.8-0.2,1.4-0.7,1.8c-0.5,0.5-1.2,0.7-2,0.7c-0.8,0-1.5-0.2-2-0.7s-0.7-1-0.7-1.8v-4.7
		h1.5v4.7c0,0.5,0.1,0.8,0.3,1c0.2,0.2,0.5,0.3,0.9,0.3c0.8,0,1.2-0.4,1.3-1.3v-4.7H-430.6z"/>
	<path class="sold-2" d="M-424,285.4h-2.2v5.9h-1.5v-5.9h-2.1v-1.2h5.8V285.4z"/>
</g>
<text transform="matrix(1 0 0 1 -439.2502 251.7665)" class="sold-2" style="font-family:'Roboto-Medium'; font-size:10px;">SOLD</text>
<text transform="matrix(1 0 0 1 -437.0835 262.0999)" class="sold-2" style="font-family:'Roboto-Medium'; font-size:10px;">OUT</text>
</svg>
