<?xml version="1.0" encoding="utf-8"?>
<!-- Generator: Adobe Illustrator 19.0.0, SVG Export Plug-In . SVG Version: 6.00 Build 0)  -->
<svg version="1.1" id="Layer_1" xmlns="http://www.w3.org/2000/svg" xmlns:xlink="http://www.w3.org/1999/xlink" x="0px" y="0px"
	 width="53.2px" height="29.7px" viewBox="-156 211.3 53.2 29.7" style="enable-background:new -156 211.3 53.2 29.7;"
	 xml:space="preserve">
<style type="text/css">
	.st0{display:none;}
	.st1{display:inline;}
	.st2{fill:#020202;}
	.st3{display:inline;fill:#E74C3C;}
	.st4{fill:#E74C3C;}
	.st5{fill:#0D0D0D;}
</style>
<g class="st0">
	<g id="XMLID_11_" class="st1">
		
			<text id="XMLID_12_" transform="matrix(1 0 0 1 -1138.1332 1059.9457)" class="st4" style="font-family:'Roboto-Regular'; font-size:41.884px;">FAITH</text>
	</g>
	<g id="XMLID_9_" class="st1">
		
			<text id="XMLID_10_" transform="matrix(1 0 0 1 -1172.746 1096.4208)" class="st5" style="font-family:'Roboto-Medium'; font-size:41.884px;">SHOPPE</text>
	</g>
	<g id="XMLID_6_" class="st1">
		<path id="XMLID_7_" class="st2" d="M-1146.9,1045.1l-18.9-0.2v-14.4c0-8.8,4.2-14,9.5-14s9.5,5.2,9.5,14L-1146.9,1045.1
			L-1146.9,1045.1L-1146.9,1045.1z M-1162.8,1042l12.9,0.1v-11.6c0-7.4-3.4-10.8-6.5-10.8c-3.1,0-6.5,3.4-6.5,10.8L-1162.8,1042
			L-1162.8,1042z"/>
	</g>
	<rect id="XMLID_1_" x="-1167.9" y="1040.5" class="st3" width="23.3" height="8.4"/>
</g>
<g>
	<rect id="XMLID_2_" x="-155.6" y="216.2" class="st4" width="10.2" height="12.7"/>
	<path id="XMLID_4_" class="st2" d="M-146.6,222.9l-7.4-0.1v-5.7c0-3.4,1.6-5.5,3.7-5.5c2.1,0,3.7,2.1,3.7,5.5V222.9L-146.6,222.9z
		 M-152.9,221.7h5v-4.5c0-2.9-1.3-4.2-2.5-4.2c-1.3,0-2.5,1.3-2.5,4.2V221.7L-152.9,221.7z"/>
	<rect id="XMLID_3_" x="-155" y="221.5" class="st4" width="9.2" height="3.3"/>
	<path class="st4" d="M-137.4,223.1h-5.4v5.5h-1v-11.7h7.2v0.8h-6.2v4.6h5.4V223.1z"/>
	<path class="st4" d="M-129.6,225.3h-5.3l-1.2,3.2h-1l4.4-11.7h0.9l4.4,11.7h-1L-129.6,225.3z M-134.7,224.5h4.7l-2.3-6.4
		L-134.7,224.5z"/>
	<path class="st4" d="M-124.7,228.5h-1v-11.7h1V228.5z"/>
	<path class="st4" d="M-113.7,217.7h-4v10.8h-1v-10.8h-4v-0.8h9V217.7L-113.7,217.7z"/>
	<path class="st4" d="M-103.2,228.5h-1v-5.6h-6.7v5.6h-1v-11.7h1v5.2h6.7v-5.2h1V228.5z"/>
	<path class="st5" d="M-149.1,237.9c0-0.5-0.2-1-0.6-1.3c-0.4-0.4-1.1-0.6-2.2-0.9c-1.1-0.3-1.8-0.6-2.2-1c-0.7-0.4-1-1.2-1-1.9
		c0-0.8,0.4-1.4,1-1.9c0.6-0.4,1.4-0.7,2.4-0.7c0.6,0,1.3,0.1,1.8,0.4s0.9,0.6,1.3,1.1c0.3,0.4,0.4,1,0.4,1.5h-0.9
		c0-0.7-0.3-1.3-0.7-1.6c-0.4-0.4-1.1-0.6-1.9-0.6s-1.3,0.2-1.8,0.5s-0.7,0.8-0.7,1.3s0.2,0.9,0.6,1.3c0.4,0.4,1.1,0.6,2,0.9
		c0.9,0.3,1.6,0.5,2.1,0.8c0.4,0.3,0.8,0.5,1.1,1c0.3,0.4,0.4,0.8,0.4,1.3c0,0.8-0.4,1.4-1,1.9c-0.6,0.4-1.4,0.7-2.5,0.7
		c-0.7,0-1.3-0.1-2-0.4c-0.6-0.3-1.1-0.6-1.3-1.1c-0.3-0.4-0.4-1-0.4-1.5h0.8c0,0.7,0.3,1.3,0.8,1.7s1.3,0.6,2.2,0.6
		c0.8,0,1.4-0.2,1.9-0.5C-149.4,239-149.1,238.6-149.1,237.9z"/>
	<path class="st5" d="M-139,240.5h-0.9v-4.9h-5.8v4.9h-0.8v-10.1h0.8v4.5h5.8v-4.5h0.9V240.5z"/>
	<path class="st5" d="M-129.1,236c0,0.9-0.2,1.7-0.4,2.4c-0.4,0.7-0.8,1.3-1.3,1.6c-0.6,0.4-1.3,0.5-2.1,0.5c-1.2,0-2.2-0.4-2.9-1.3
		c-0.7-0.8-1.1-2-1.1-3.4v-1.1c0-0.9,0.2-1.7,0.4-2.4c0.4-0.7,0.8-1.3,1.3-1.6c0.6-0.4,1.3-0.5,2.1-0.5s1.4,0.2,2.1,0.5
		c0.6,0.4,1.1,0.9,1.3,1.6c0.4,0.7,0.4,1.4,0.5,2.3L-129.1,236L-129.1,236z M-130,234.9c0-1.2-0.3-2.2-0.8-2.9s-1.3-1-2.2-1
		s-1.7,0.4-2.2,1c-0.5,0.7-0.8,1.6-0.8,2.9v1.1c0,1.2,0.3,2.2,0.8,2.9s1.3,1.1,2.2,1.1s1.7-0.4,2.2-1c0.5-0.7,0.8-1.6,0.8-2.9V234.9
		z"/>
	<path class="st5" d="M-126,236.3v4.1h-0.8v-10.1h3.4c1.1,0,1.9,0.3,2.5,0.8s0.9,1.3,0.9,2.2c0,1-0.3,1.7-0.9,2.2
		c-0.5,0.5-1.4,0.8-2.5,0.8H-126L-126,236.3z M-126,235.6h2.6c0.8,0,1.4-0.2,1.9-0.6c0.4-0.4,0.6-0.9,0.6-1.6s-0.2-1.3-0.6-1.7
		s-1.1-0.6-1.8-0.6h-2.6L-126,235.6L-126,235.6z"/>
	<path class="st5" d="M-117.4,236.3v4.1h-0.8v-10.1h3.4c1.1,0,1.9,0.3,2.5,0.8s0.9,1.3,0.9,2.2c0,1-0.3,1.7-0.9,2.2
		c-0.5,0.5-1.4,0.8-2.5,0.8H-117.4L-117.4,236.3z M-117.4,235.6h2.6c0.8,0,1.4-0.2,1.9-0.6c0.4-0.4,0.6-0.9,0.6-1.6
		s-0.2-1.3-0.6-1.7s-1.1-0.6-1.8-0.6h-2.6L-117.4,235.6L-117.4,235.6z"/>
	<path class="st5" d="M-103.9,235.6h-4.7v4.1h5.4v0.7h-6.3v-10.1h6.2v0.7h-5.4v3.8h4.7L-103.9,235.6L-103.9,235.6L-103.9,235.6z"/>
</g>
</svg>
