<?xml version="1.0" encoding="utf-8"?>
<!-- Generator: Adobe Illustrator 19.0.0, SVG Export Plug-In . SVG Version: 6.00 Build 0)  -->
<svg version="1.1" id="Layer_1" xmlns="http://www.w3.org/2000/svg" xmlns:xlink="http://www.w3.org/1999/xlink" x="0px" y="0px"
	 width="528px" height="124.3px" viewBox="0 0 528 124.3" style="enable-background:new 0 0 528 124.3;" xml:space="preserve">
<style type="text/css">
	.st0{fill-rule:evenodd;clip-rule:evenodd;fill:#FFE3C5;}
	.st1{fill:#FFE3C5;}
	.st2{font-family:'FontAwesome';}
	.st3{font-size:30px;}
	.st4{fill:none;stroke:#FFE3C5;stroke-width:2;stroke-miterlimit:10;}
	.st5{fill:none;stroke:#FFE3C5;stroke-width:2;stroke-miterlimit:10;stroke-dasharray:5.3268,3.1961;}
</style>
<g id="XMLID_71_">
	<path id="XMLID_26_" class="st0" d="M67.5,8.9c-1.7-1.4-4.2-1.7-5.3,4c-0.6,2.9-4.5,9.5-6.6,14.6c-2.1,5.1-4.7,14.6-8.1,18.4
		c-3.4,3.8-8.4,12.5-3.3,14.8c5.2,2.3,21-2.9,26.7-15.5C76.7,32.6,75.8,12.8,67.5,8.9z"/>
	<path id="XMLID_25_" class="st0" d="M35.9,56.9c5.2,2.3,8.4-7.1,9-12.2c0.6-5.1,6-13.3,8.5-18.2c2.4-4.9,4.8-12.2,6.6-14.6
		c3.6-4.6,1.8-6.3-0.4-6.6C51.2,1.6,35.7,14,30,26.6C24.2,39.2,30.8,54.6,35.9,56.9z"/>
	<path id="XMLID_24_" class="st0" d="M99.7,67.6c-1.3-1.8-3.6-2.7-6.1,2.5c-1.3,2.7-6.8,8-10.1,12.4c-3.3,4.3-8.3,12.9-12.6,15.7
		c-4.3,2.8-11.4,9.8-7,13.4c4.4,3.6,21,2.6,29.8-8.1C102.5,92.8,106.7,73.4,99.7,67.6z"/>
	<path id="XMLID_23_" class="st0" d="M68.6,96.3c1.9-4.8,9.3-11.3,12.9-15.4c3.6-4.1,7.8-10.6,10.1-12.4c4.6-3.5,3.3-5.6,1.3-6.5
		c-7.1-5.7-25.3,2.2-34.1,12.9c-8.8,10.7-6.5,27.2-2.1,30.8C61.1,109.3,66.7,101,68.6,96.3z"/>
	<path id="XMLID_22_" class="st0" d="M33.1,61.2c-2-0.9-4.5-0.5-4,5.3c0.2,3-1.9,10.4-2.6,15.8c-0.7,5.4-0.7,15.3-3.1,19.9
		c-2.3,4.6-4.9,14.2,0.7,15.1c5.6,0.9,19.5-8.2,21.8-21.9C48.1,81.7,42,62.8,33.1,61.2z"/>
	<path id="XMLID_21_" class="st0" d="M23.9,81.8c1.1-5.4,1.4-13,2.6-15.8c2.3-5.4,0.1-6.5-2.1-6.3c-9-1.4-20.8,14.6-23,28.2
		c-2.3,13.7,8,26.8,13.6,27.7c5.6,0.9,6.2-9.1,5.5-14.1C19.7,96.6,22.8,87.2,23.9,81.8z"/>
</g>
<g id="XMLID_63_">
	<path id="XMLID_68_" class="st0" d="M516,70.4c-1,0-1.9,0.2-2.8,0.4c0.1-1.2,0.3-2.4,0.3-3.5h-71.7c0.2,16.1,11.1,37.1,25.8,44
		h20.1c8.4-4,15.4-12.5,20-22c2.1,2.2,5,3.7,8.3,3.7c6.2,0,11.3-5.1,11.3-11.3C527.3,75.5,522.3,70.4,516,70.4z M516,88
		c-2.7,0-5-1.8-5.9-4.2c0.9-2.3,1.6-4.6,2.1-7c1.1-0.8,2.3-1.4,3.8-1.4c3.5,0,6.3,2.8,6.3,6.3C522.3,85.2,519.5,88,516,88z"/>
	<path id="XMLID_18_" class="st0" d="M463.1,122.4h29.7c15.2-1.4,26.7-4.8,29.3-9h-88.3C436.4,117.5,447.9,121,463.1,122.4z"/>
	<path id="XMLID_17_" class="st1" d="M479.1,35.3c-1.7-2-3.5-4.1-4.9-6.2c-1.2-1.9-2.2-3.9-2.7-6.1c-0.7-3.2-0.4-6.9,1.3-9.3
		c1.7-2.5,4.3-3.4,5.7-3.9c-1.4,0.3-4,0.9-6.5,3.3c-3.1,3-3.3,6.8-3,10.5c0.5,5.3,3.4,9.6,6.7,13.7c2.9,3.7,7.1,7.5,7.7,12.5
		c0.8,6.7-4.2,13.2-5.7,15.6c1.8-2.2,7.7-7.7,8-15.7C486,43.9,482.7,39.5,479.1,35.3z"/>
	<path id="XMLID_16_" class="st1" d="M492.3,42.5c1.5,3.6,2,7.5,0.6,11.6c-1.2,3.4-3.5,7.8-5.5,9.5c2.1-1.3,5.8-5.3,7.6-8.6
		c2.2-4,3.2-8.2,1.5-13.4c-1.5-4.6-5.9-8.2-9.9-10.6c-2.5-1.7-5.1-3.3-6.6-5.4c-1.5-2.1-1.4-4.5-1.2-5.8c-0.5,1.2-1,3.6,0.3,6.2
		c1.2,2.6,3.8,4.7,6,6.7C488.2,35.6,490.8,38.9,492.3,42.5z"/>
	<path id="XMLID_15_" class="st1" d="M466.8,38.2c-3.5-3.5-5.8-5.4-6.9-8.9c-1.5-4.8,0.5-9.6,2.1-12.1c-2,2-5,6.6-4.3,12.5
		c1.3,8.1,9.2,12.2,12.8,19c2.4,4.5,0.5,10.2-0.6,12.1c1.3-1.6,4.8-7.4,3.1-13.3C471.8,43.4,470.6,42,466.8,38.2z"/>
</g>
<path id="XMLID_53_" class="st1" d="M315.1,58.4c-3.9,0-5.9,1.4-8.2,3.7c-0.2,0.2-3,0.2-5.7,0.2c-2.7,0-4.3-0.3-4.9,0.4
	c-0.9,1-2.2,2.4-2.2,2.4s-1.5,0.2-2.7,0.2c0,0,1.4-0.4,2-0.8c0.6-0.3,0.5-1.2,0.5-2.1c0,0,0.6-0.4,0.6-1.2c0,0-0.1-1.3-0.1-2.5
	c6.6-2.7,9.6-7.8,9.6-12.2c0-0.3,0-0.5,0-0.8c-0.5-5.7-2.3-9.5-5-12.1c-0.1-0.4-0.3-1.1-0.3-1.4v-2c0.3-0.3,0.5-0.6,0.6-1.1
	c0-0.8-0.7-1.3-1.9-1.5c-2-0.4-6.9-0.6-13.8-0.6c-6.7,0-11.5,0.2-13.6,0.6c-1.2,0.2-1.9,0.9-1.9,1.7c0,0.4,0.2,0.7,0.4,1v2.1
	c0,0.4-0.2,0.9-0.3,1.3c-2.7,2.5-4.6,6.4-5.1,12c0,0.3,0,0.6,0,0.9c0,4.7,3.2,9.6,9.6,12.2c0,1.2-0.1,2.5-0.1,2.5
	c0,0.8,0.6,1.2,0.6,1.2c0,1-0.1,1.8,0.5,2.1c0.6,0.3,2,0.8,2,0.8v6C267,73.5,261,79.5,261,87.4c0,6.4,2,11.1,5.8,14
	c0.8,0.6,1.7,1.1,2.6,1.6c-4.7,0.2-7.4,0.5-8.4,0.9c-0.6,0.3-1.3,3.3-1.5,5.1c-0.4,0.2-0.7,0.3-1.1,0.5V23.1h7
	c0.7,0,1.2-0.3,1.5-0.7h16.8c1.5,0,2.7-1.2,2.7-2.7c0,0,0-5.1,0-5.5c0-0.9-0.3-0.9-0.3-0.9v-0.8c0,0,0.3,0,0.3-0.8
	c0-0.4,0-4.5,0-4.5c0-1.5-1.2-2.7-2.7-2.7h-16.4C267,3.6,266.5,3,265.4,3H264c-0.1-1.7-8-2-17.9-2c-9.8,0-20,0.3-20.1,2h-1.8
	c-1.5,0-2.7,1.2-2.7,2.7v6.1l0,0c0,0.8,0.3,0.8,0.3,0.8v0.8c0,0-0.3,0.1-0.3,0.8v6.2c0,1.5,1.2,2.7,2.7,2.7h2.3v96.3
	c0.1,0.4,0.9,1.8,2.3,2.1c2.2,1.1,3.9,1.1,6,1.1c3.8,0,13.9,0.2,16.8,0c2-0.1,4.5-0.6,5.9-1.4c1.5,0.4,4,0.5,7.1,0.9
	c2.5,0.3,11.5,0.8,18.6,0.8c7.9,0,17.3-0.3,20.2-0.8c4.4-0.6,7.3-0.8,7.3-2.6v-7.5c0-1.3-0.8-1.4-3.2-2.7c-0.7-3.8-1-5.3-1.8-5.5
	c-1.4-0.4-3.7-0.6-7.6-0.8c0.9-0.5,1.8-1,2.6-1.6c3.6-2.8,5.5-7,5.8-12.7c4.3,3.7,6.6,2.1,9.5,2.1c3.4,0,7.1-3.7,7.1-7
	c0-3.3,0.1-13.9,0.1-18.6C323.1,61.6,319.1,58.4,315.1,58.4z M250.6,113.5c-1.6,0-3-1.2-3-2.7c0-1.5,1.3-2.7,3-2.7
	c1.6,0,3,1.2,3,2.7C253.6,112.3,252.2,113.5,250.6,113.5z M250.6,105.4c-1.6,0-3-1.2-3-2.7c0-1.5,1.3-2.7,3-2.7c1.6,0,3,1.2,3,2.7
	C253.6,104.2,252.2,105.4,250.6,105.4z M250.6,97.3c-1.6,0-3-1.2-3-2.7c0-1.5,1.3-2.7,3-2.7c1.6,0,3,1.2,3,2.7
	C253.6,96.1,252.2,97.3,250.6,97.3z M274.1,58.2c-6.9-2.4-10.2-7.3-10.2-11.8c0-0.3,0-0.6,0-0.8c0.5-5.5,2.3-9.1,4.9-11.5l0.1-0.1
	l0-0.1c0.1-0.4,0.4-1.1,0.4-1.7v-1.6c2.2,0.5,8.1,1.2,13.9,1.4c0,0,0,0,0,0c0.3,0,0.5-0.2,0.5-0.5c0-0.3-0.2-0.5-0.5-0.5
	c-6.1-0.1-12.9-1.1-14-1.4l-0.1-0.1c-0.2-0.1-0.2-0.3-0.2-0.4c0-0.2,0.2-0.6,1.2-0.8c2-0.4,6.8-0.6,13.5-0.6
	c6.9,0,11.8,0.2,13.6,0.6c1.1,0.2,1.1,0.5,1.1,0.6c0,0.1-0.2,0.4-0.4,0.6l-0.1,0c0,0,0,0-0.1,0c-0.9,0.6-8.6,1.3-13,1.4
	c-0.3,0-0.5,0.2-0.4,0.5c0,0.2,0.2,0.4,0.5,0.4c0,0,0,0,0,0c4.2-0.2,10.6-0.6,12.9-1.4v1.5c0,0.6,0.2,1.4,0.4,1.8l0,0.1l0.1,0.1
	c2.6,2.4,4.3,6,4.8,11.6c0,0.2,0,0.5,0,0.7c0,4.1-3.1,9.3-10.2,11.8c-1.4-0.1-4.1-0.2-9.2-0.2C278.4,58,275.6,58.1,274.1,58.2z
	 M287.3,92.7c-0.7-0.2-1.8-0.3-3.8-0.3c-1.9,0-3,0.1-3.7,0.3c-0.1,0-0.2,0.1-0.3,0.1l0-20.6h8.1v20.6
	C287.5,92.8,287.4,92.7,287.3,92.7z M287.4,93.7c0,0-0.1,0-0.1,0c-0.3,0.1-1,0.3-2.2,0.3c-0.1,0-0.3,0-0.4,0c-0.2,0-0.4,0-0.7,0
	c-0.1,0-0.3,0-0.4,0h0c0,0,0,0,0,0c-0.6,0-1.1,0-1.6,0c-0.7,0-1.3-0.1-1.6-0.2c-0.1,0-0.2,0-0.2-0.1c0,0-0.1,0-0.1,0
	c-0.1,0-0.2-0.1-0.2-0.1c0.4-0.1,1.6-0.3,3.9-0.3c1.9,0,3,0.1,3.6,0.2C287.2,93.7,287.3,93.7,287.4,93.7z M295.8,103
	c-3-0.1-6.9-0.1-11.7-0.1c-5,0-9.2,0-12.6,0.1c-6.4-2.4-9.6-7.3-9.7-15.6c0-7.8,6.2-13.8,15.3-15.7c0.4,0,0.8,0,1.4,0.1v21.6
	c0,0.1,0,0.1,0.1,0.2c0,0,0,0,0,0c0,0.1,0,0.2,0.1,0.3c0,0.1,0,0.1,0.1,0.2c0.1,0.1,0.2,0.2,0.3,0.3c0,0,0.1,0,0.1,0.1
	c0.5,0.4,1.3,0.5,2.4,0.5c0.4,0,0.9,0,1.5,0c0.2,0,0.3,0,0.5,0c0,0,0,0,0,0l0,0c0.1,0,0.2,0,0.3,0c0.7,0,1.3,0,1.8,0
	c0.4,0,0.7,0,1-0.1c0,0,0.1,0,0.1,0c0.1,0,0.3-0.1,0.4-0.1c0,0,0.1,0,0.1,0c0.1,0,0.2-0.1,0.3-0.1c0.1,0,0.1-0.1,0.2-0.1
	c0.1,0,0.2-0.1,0.2-0.2c0.1-0.1,0.2-0.2,0.2-0.3c0,0,0.1-0.1,0.1-0.1c0,0,0,0,0.1-0.1c0-0.1,0.1-0.2,0.1-0.3c0,0,0,0,0,0
	c0-0.1,0-0.1,0-0.2l0-21.6c0.7,0,1.2-0.1,1.6-0.1c9.1,1.9,15.3,7.9,15.3,15.7C305.4,95.7,302.2,100.6,295.8,103z M319.4,84.2
	c0,2.4-2.1,4.4-4.7,4.4h-0.3c-2.6,0-4.7-2-4.7-4.4v-19c0-2.4,2.1-4.4,4.7-4.4h0.3c2.6,0,4.7,2,4.7,4.4V84.2z"/>
<text id="XMLID_5_" transform="matrix(-1 0 0 -1 201.698 61.3104)" class="st1 st2 st3"></text>
<g id="XMLID_4_">
	<line id="XMLID_38_" class="st4" x1="132.4" y1="70.9" x2="134.9" y2="70.9"/>
	<line id="XMLID_37_" class="st5" x1="138.1" y1="70.9" x2="187.6" y2="70.9"/>
	<line id="XMLID_36_" class="st4" x1="189.2" y1="70.9" x2="191.7" y2="70.9"/>
</g>
<text id="XMLID_3_" transform="matrix(-1 0 0 -1 416.698 61.1109)" class="st1 st2 st3"></text>
<g id="XMLID_2_">
	<line id="XMLID_186_" class="st4" x1="347.4" y1="70.7" x2="349.9" y2="70.7"/>
	<line id="XMLID_185_" class="st5" x1="353.1" y1="70.7" x2="402.6" y2="70.7"/>
	<line id="XMLID_184_" class="st4" x1="404.2" y1="70.7" x2="406.7" y2="70.7"/>
</g>
</svg>
