<?xml version="1.0" encoding="utf-8"?>
<!-- Generator: Adobe Illustrator 19.0.0, SVG Export Plug-In . SVG Version: 6.00 Build 0)  -->
<svg version="1.1" id="Layer_1" xmlns="http://www.w3.org/2000/svg" xmlns:xlink="http://www.w3.org/1999/xlink" x="0px" y="0px"
	 width="79.4px" height="52.5px" viewBox="-439 254.5 79.4 52.5" style="enable-background:new -439 254.5 79.4 52.5;"
	 xml:space="preserve">
<style type="text/css">
	.st0{display:none;}
	.st1{display:inline;}
	.st2{fill:#FF9800;}
</style>
<g id="XMLID_29_" class="st0">
	<g id="XMLID_215_" class="st1">
		<path id="XMLID_224_" class="st2" d="M-877.5,538.3c0,1.5,1.2,2.7,2.7,2.7h17l-8.8-5.3h-9C-876.7,536-877.5,537-877.5,538.3z"/>
		<path id="XMLID_223_" class="st2" d="M-829.7,538.3c0-1.2-0.8-2.2-1.9-2.6h-9l-8.8,5.3h17C-830.9,541-829.7,539.7-829.7,538.3z"/>
		<path id="XMLID_222_" class="st2" d="M-831.6,552.4c-0.5,0-0.9-0.1-1.4-0.3c-2.2-0.7-2.8-0.6-3.8,0.7c-0.9,1.2-2.4,1.8-3.8,1.7
			c-1.5-0.1-2.3-0.5-3.6-1.6l-0.1-0.1c-0.9-0.7-1.5-1.2-3-1c0,0-1.3,0.1-2.7,1.4c-0.8,0.7-2,1.7-3.5,1.7s-2.7-1-3.5-1.7
			c-1.4-1.3-2.7-1.4-2.7-1.4c-1.5-0.2-2.1,0.3-3,1l-0.1,0.1c-1.3,1-2.1,1.4-3.6,1.6c-1.4,0.1-2.9-0.5-3.8-1.7
			c-1-1.2-1.5-1.3-3.8-0.7c-0.5,0.2-1,0.2-1.5,0.3v4.6c0,0-0.3,4.3,4.8,4.3h34.3c5.1,0,4.8-4.3,4.8-4.3L-831.6,552.4L-831.6,552.4z"
			/>
		<path id="XMLID_221_" class="st2" d="M-877,521.8c0,1.7,0.6,2.6,1.1,3h44.6c0.5-0.5,1.1-1.4,1.1-3c0-3.5-5.4-12.6-23.4-12.6
			S-877,518.4-877,521.8z"/>
		<path id="XMLID_220_" class="st2" d="M-836.8,531.2c-0.9,1.2-2.4,1.8-3.8,1.7c-1.5-0.2-2.3-0.5-3.6-1.6l-0.1-0.1
			c-0.9-0.7-1.5-1.2-3-1c0,0-1.3,0.1-2.7,1.4c-0.8,0.7-2,1.7-3.5,1.7s-2.7-1-3.5-1.7c-1.4-1.3-2.7-1.4-2.7-1.4c-1.5-0.2-2.1,0.3-3,1
			l-0.1,0.1c-1.3,1-2.1,1.4-3.6,1.6c-1.4,0.1-2.9-0.5-3.8-1.7c-1-1.2-1.5-1.3-3.8-0.7c-0.6,0.2-1.2,0.3-1.8,0.3v3.6h44.4v-3.6
			c-0.5,0-1.1-0.1-1.7-0.3C-835.3,529.8-835.9,529.9-836.8,531.2z"/>
		<polygon id="XMLID_219_" class="st2" points="-875.8,546.5 -831.4,546.5 -831.4,542.1 -851.2,542.1 -853.6,543.5 -855.9,542.1 
			-875.8,542.1 		"/>
		<path id="XMLID_218_" class="st2" d="M-843,535.7h-21.1c3.3,2,10.1,6,10.5,6.3C-853.1,541.7-846.3,537.7-843,535.7z"/>
		<path id="XMLID_217_" class="st2" d="M-831.1,526.1c-0.3,0-44.6,0-44.9,0c-0.5,0.3-1.6,1.1-1.7,2v0.1c0,0.3,0.1,0.6,0.4,0.8
			c0.6,0.5,1.7,0.6,2.9,0.2c2.1-0.7,3.5-0.9,5.1,1.1c0.8,1,1.9,1.3,2.7,1.2c1.2-0.1,1.7-0.4,2.9-1.3l0.1-0.1c1-0.8,1.9-1.5,3.9-1.3
			c0.1,0,1.7,0.1,3.5,1.7c0.6,0.6,1.6,1.3,2.6,1.3c1.1,0,2-0.8,2.6-1.3c1.8-1.6,3.4-1.7,3.4-1.7c2-0.2,2.9,0.5,3.9,1.3l0.1,0.1
			c1.2,0.9,1.8,1.2,2.9,1.3c0.8,0.1,1.9-0.2,2.7-1.2c1.6-2,3-1.8,5.1-1.1c1.2,0.4,2.3,0.3,2.9-0.2c0.3-0.2,0.4-0.5,0.4-0.8v-0.1
			C-829.5,527.2-830.5,526.4-831.1,526.1z"/>
		<path id="XMLID_216_" class="st2" d="M-831.1,547.8c-0.3,0-44.6,0-44.9,0c-0.5,0.3-1.6,1.1-1.7,2v0.1c0,0.3,0.1,0.6,0.4,0.8
			c0.6,0.5,1.7,0.6,2.9,0.2c2.1-0.7,3.5-0.9,5.1,1.1c0.8,1,1.9,1.3,2.7,1.2c1.2-0.1,1.7-0.4,2.9-1.3l0.1-0.1c1-0.8,1.9-1.5,3.9-1.3
			c0.1,0,1.7,0.1,3.5,1.7c0.6,0.6,1.6,1.3,2.6,1.3c1.1,0,2-0.8,2.6-1.3c1.8-1.6,3.4-1.7,3.4-1.7c2-0.2,2.9,0.5,3.9,1.3l0.1,0.1
			c1.2,0.9,1.8,1.2,2.9,1.3c0.8,0.1,1.9-0.2,2.7-1.2c1.6-2,3-1.8,5.1-1.1c1.2,0.4,2.3,0.3,2.9-0.2c0.3-0.2,0.4-0.5,0.4-0.8v-0.1
			C-829.5,548.8-830.5,548.1-831.1,547.8z"/>
	</g>
</g>
<path class="st2" d="M-374.3,266.8c-1.1,0-2.1,0.1-3.1,0.3c-3.8-6.2-11.1-10.4-19.5-10.4c-7.2,0-13.5,3.1-17.6,7.8
	c-2.4-1.3-5.3-2-8.3-2c-8.9,0-16.1,6.4-16.1,14.2c0,7.3,6.3,13.3,14.4,14.1l3.2,14c2.4-1.2,11.4-2,22.2-2s19.9,0.9,22.2,2l3.1-13.6
	c7.8-0.3,14.1-5.6,14.1-12.2C-359.7,272.3-366.2,266.8-374.3,266.8z M-419.7,302.8l-2.4-11.6c0.6-0.1,1.2-0.2,1.8-0.3l1.9,11.6
	C-418.9,302.6-419.3,302.7-419.7,302.8z M-414.9,302l-1.8-11.4c0.6-0.1,1.2-0.1,1.8-0.2l1.3,11.4
	C-414.1,301.9-414.5,301.9-414.9,302z M-421.9,288.6c-7.4,0-13.4-5.3-13.4-11.8c-0.1-1.1,0.1-2.2,0.5-3.2v0.9
	c0,7,6.5,12.7,14.4,12.7c3,0,5.8-0.8,8.2-2.2C-414.6,287.2-418.1,288.6-421.9,288.6z M-413.6,268.8c3.3-5.4,9.7-9.1,17-9.1
	c8.6,0,15.9,5.1,18.4,12.1c-3.4-6.2-10.5-10.5-18.7-10.5C-403.7,261.3-409.8,264.2-413.6,268.8z M-410,301.5l-1.2-11.3l1.9-0.1
	l0.7,11.3L-410,301.5z M-404.9,301.2l-0.6-11.2h1.8l0.2,11.2H-404.9z M-398.5,301h-1.4l-0.1-11.1h1.9L-398.5,301z M-393.4,301.2
	h-1.4l0.5-11.1h1.8L-393.4,301.2z M-388.4,301.5l-1.4-0.1l1-11.2c0.6,0,1.2,0.1,1.8,0.1L-388.4,301.5z M-383.4,302
	c-0.4,0-0.9-0.1-1.3-0.2l1.5-11.2c0.6,0.1,1.2,0.1,1.8,0.2L-383.4,302z M-378.6,302.9c-0.4-0.1-0.9-0.2-1.3-0.3l2.1-11.3
	c0.7,0.1,1.2,0.2,1.8,0.3L-378.6,302.9z M-372.7,289.1c-2.1,0.3-4.7,0.3-6.8,0.1c-5.6-0.8-11.8-3.1-21.8-1.1c12-4,19.2,0.6,25.1,0.3
	c7.1,0,12.8-4.8,12.8-10.7c0-1.4-0.3-2.8-0.9-4c1.1,1.5,1.7,3.4,1.7,5.3C-362.6,284-367,288.3-372.7,289.1z"/>
</svg>
