<?xml version="1.0" encoding="utf-8"?>
<!-- Generator: Adobe Illustrator 19.0.0, SVG Export Plug-In . SVG Version: 6.00 Build 0)  -->
<svg version="1.1" id="Layer_1" xmlns="http://www.w3.org/2000/svg" xmlns:xlink="http://www.w3.org/1999/xlink" x="0px" y="0px"
	 width="49px" height="52.5px" viewBox="0 0 49 52.5" style="enable-background:new 0 0 49 52.5;" xml:space="preserve">
<style type="text/css">
	.st0{fill:#FF9800;}
	.st1{display:none;fill-rule:evenodd;clip-rule:evenodd;fill:#FF9800;}
</style>
<g id="XMLID_29_">
	<g id="XMLID_215_">
		<path id="XMLID_224_" class="st0" d="M0.5,29.3c0,1.5,1.2,2.7,2.7,2.7h17l-8.8-5.3h-9C1.3,27,0.5,28,0.5,29.3z"/>
		<path id="XMLID_223_" class="st0" d="M48.3,29.3c0-1.2-0.8-2.2-1.9-2.6h-9L28.6,32h17C47.1,32,48.3,30.7,48.3,29.3z"/>
		<path id="XMLID_222_" class="st0" d="M46.4,43.4c-0.5,0-0.9-0.1-1.4-0.3c-2.2-0.7-2.8-0.6-3.8,0.7c-0.9,1.2-2.4,1.8-3.8,1.7
			c-1.5-0.1-2.3-0.5-3.6-1.6l-0.1-0.1c-0.9-0.7-1.5-1.2-3-1c0,0-1.3,0.1-2.7,1.4c-0.8,0.7-2,1.7-3.5,1.7c-1.5,0-2.7-1-3.5-1.7
			c-1.4-1.3-2.7-1.4-2.7-1.4c-1.5-0.2-2.1,0.3-3,1l-0.1,0.1c-1.3,1-2.1,1.4-3.6,1.6c-1.4,0.1-2.9-0.5-3.8-1.7
			c-1-1.2-1.5-1.3-3.8-0.7c-0.5,0.2-1,0.2-1.5,0.3V48c0,0-0.3,4.3,4.8,4.3h34.3c5.1,0,4.8-4.3,4.8-4.3V43.4z"/>
		<path id="XMLID_221_" class="st0" d="M1,12.8c0,1.7,0.6,2.6,1.1,3h44.6c0.5-0.5,1.1-1.4,1.1-3c0-3.5-5.4-12.6-23.4-12.6
			S1,9.4,1,12.8z"/>
		<path id="XMLID_220_" class="st0" d="M41.2,22.2c-0.9,1.2-2.4,1.8-3.8,1.7c-1.5-0.2-2.3-0.5-3.6-1.6l-0.1-0.1
			c-0.9-0.7-1.5-1.2-3-1c0,0-1.3,0.1-2.7,1.4c-0.8,0.7-2,1.7-3.5,1.7c-1.5,0-2.7-1-3.5-1.7c-1.4-1.3-2.7-1.4-2.7-1.4
			c-1.5-0.2-2.1,0.3-3,1l-0.1,0.1c-1.3,1-2.1,1.4-3.6,1.6c-1.4,0.1-2.9-0.5-3.8-1.7c-1-1.2-1.5-1.3-3.8-0.7
			c-0.6,0.2-1.2,0.3-1.8,0.3v3.6h44.4v-3.6c-0.5,0-1.1-0.1-1.7-0.3C42.7,20.8,42.1,20.9,41.2,22.2z"/>
		<polygon id="XMLID_219_" class="st0" points="2.2,37.5 46.6,37.5 46.6,33.1 26.8,33.1 24.4,34.5 22.1,33.1 2.2,33.1 		"/>
		<path id="XMLID_218_" class="st0" d="M35,26.7H13.9c3.3,2,10.1,6,10.5,6.3C24.9,32.7,31.7,28.7,35,26.7z"/>
		<path id="XMLID_217_" class="st0" d="M46.9,17.1c-0.3,0-44.6,0-44.9,0c-0.5,0.3-1.6,1.1-1.7,2c0,0,0,0.1,0,0.1
			c0,0.3,0.1,0.6,0.4,0.8c0.6,0.5,1.7,0.6,2.9,0.2c2.1-0.7,3.5-0.9,5.1,1.1c0.8,1,1.9,1.3,2.7,1.2c1.2-0.1,1.7-0.4,2.9-1.3l0.1-0.1
			c1-0.8,1.9-1.5,3.9-1.3c0.1,0,1.7,0.1,3.5,1.7c0.6,0.6,1.6,1.3,2.6,1.3c1.1,0,2-0.8,2.6-1.3c1.8-1.6,3.4-1.7,3.4-1.7
			c2-0.2,2.9,0.5,3.9,1.3l0.1,0.1c1.2,0.9,1.8,1.2,2.9,1.3c0.8,0.1,1.9-0.2,2.7-1.2c1.6-2,3-1.8,5.1-1.1c1.2,0.4,2.3,0.3,2.9-0.2
			c0.3-0.2,0.4-0.5,0.4-0.8c0,0,0-0.1,0-0.1C48.5,18.2,47.5,17.4,46.9,17.1z"/>
		<path id="XMLID_216_" class="st0" d="M46.9,38.8c-0.3,0-44.6,0-44.9,0c-0.5,0.3-1.6,1.1-1.7,2c0,0,0,0.1,0,0.1
			c0,0.3,0.1,0.6,0.4,0.8c0.6,0.5,1.7,0.6,2.9,0.2c2.1-0.7,3.5-0.9,5.1,1.1c0.8,1,1.9,1.3,2.7,1.2c1.2-0.1,1.7-0.4,2.9-1.3l0.1-0.1
			c1-0.8,1.9-1.5,3.9-1.3c0.1,0,1.7,0.1,3.5,1.7c0.6,0.6,1.6,1.3,2.6,1.3c1.1,0,2-0.8,2.6-1.3c1.8-1.6,3.4-1.7,3.4-1.7
			c2-0.2,2.9,0.5,3.9,1.3l0.1,0.1c1.2,0.9,1.8,1.2,2.9,1.3c0.8,0.1,1.9-0.2,2.7-1.2c1.6-2,3-1.8,5.1-1.1c1.2,0.4,2.3,0.3,2.9-0.2
			c0.3-0.2,0.4-0.5,0.4-0.8c0,0,0-0.1,0-0.1C48.5,39.8,47.5,39.1,46.9,38.8z"/>
	</g>
</g>
<path id="XMLID_28_" class="st1" d="M61.6,12.6c1-0.2,2-0.3,3.1-0.3c8.1,0,14.6,5.5,14.6,12.2c0,6.6-6.3,11.9-14.1,12.2l-3.1,13.6
	c-2.3-1.1-11.4-2-22.2-2c-10.8,0-19.8,0.8-22.2,2l-3.2-14C6.5,35.5,0.2,29.5,0.2,22.2C0.2,14.3,7.4,8,16.3,8c3,0,5.9,0.7,8.3,2
	C28.6,5.3,35,2.2,42.1,2.2C50.6,2.2,57.9,6.4,61.6,12.6L61.6,12.6z M16.8,36.7c0.6-0.1,1.2-0.2,1.8-0.3l1.9,11.6
	c-0.5,0.1-0.9,0.2-1.3,0.3L16.8,36.7L16.8,36.7z M55.7,36.1c0.6,0.1,1.2,0.1,1.8,0.2l-2,11.2c-0.4,0-0.9-0.1-1.3-0.2L55.7,36.1
	L55.7,36.1z M50.2,35.7c0.6,0,1.2,0.1,1.8,0.1L50.5,47l-1.4-0.1L50.2,35.7L50.2,35.7z M46.4,35.6l-0.9,11.1l-1.4,0l0.5-11.1
	L46.4,35.6z M40.8,35.4l-0.4,11.1h-0.7h-0.7L39,35.4L40.8,35.4z M35.2,35.5l0.2,11.2l-1.4,0l-0.6-11.2L35.2,35.5z M29.6,35.6
	l0.7,11.3L29,47l-1.2-11.3L29.6,35.6z M22.3,36.1c0.6-0.1,1.2-0.1,1.8-0.2l1.3,11.4c-0.5,0.1-0.9,0.1-1.3,0.2L22.3,36.1L22.3,36.1z
	 M61.1,36.8c0.7,0.1,1.2,0.2,1.8,0.3l-2.6,11.3c-0.4-0.1-0.9-0.2-1.3-0.3L61.1,36.8L61.1,36.8z M42.4,5.2c8.6,0,15.9,5.1,18.4,12.1
	C57.4,11.2,50.2,6.9,42,6.9c-6.8,0-12.9,2.9-16.7,7.5C28.6,8.9,35,5.2,42.4,5.2L42.4,5.2z M4.1,19.1c0,0.3,0,0.6,0,0.9
	c0,7,6.5,12.7,14.4,12.7c3,0,5.8-0.8,8.2-2.2c-2.4,2.2-5.9,3.6-9.7,3.6c-7.4,0-13.4-5.3-13.4-11.8C3.6,21.2,3.8,20.1,4.1,19.1
	L4.1,19.1z M37.6,33.6c12-4,19.2,0.6,25.1,0.3c7.1,0,12.8-4.8,12.8-10.7c0-1.4-0.3-2.8-0.9-4c1.1,1.5,1.7,3.4,1.7,5.3
	c0,5-4.4,9.3-10.1,10.1c-2.1,0.3-4.7,0.3-6.8,0.1C53.9,33.9,47.7,31.6,37.6,33.6L37.6,33.6z"/>
</svg>
