<?xml version="1.0" encoding="utf-8"?>
<!-- Generator: Adobe Illustrator 19.0.0, SVG Export Plug-In . SVG Version: 6.00 Build 0)  -->
<svg version="1.1" id="Layer_1" xmlns="http://www.w3.org/2000/svg" xmlns:xlink="http://www.w3.org/1999/xlink" x="0px" y="0px"
	 width="603.6px" height="296.9px" viewBox="0 0 603.6 296.9" style="enable-background:new 0 0 603.6 296.9;" xml:space="preserve"
	>
<style type="text/css">
	.st0{fill:#EABBB3;}
	.st1{fill:#D60033;}
	.st2{opacity:0.3;fill:#FFFFFF;}
	.st3{opacity:0.5;fill:#FFFFFF;}
	.st4{opacity:0.25;fill:#FFFFFF;}
	.st5{fill:#FBFCFC;}
	.st6{fill:#F4F6F6;}
	.st7{fill:#FFFFFF;}
	.st8{opacity:3.000000e-002;}
	.st9{opacity:0.3;}
	.st10{fill:#F6DDCC;}
	.st11{opacity:8.000000e-002;}
	.st12{opacity:0.3;fill:#6E2C00;}
</style>
<g id="XMLID_3_">
	<polygon id="XMLID_6_" class="st0" points="601.8,296.5 1.8,296.5 33.4,236.5 570.3,236.5 	"/>
	<g id="XMLID_95_">
		<path id="XMLID_109_" class="st1" d="M387.8,162c0,0-22,9.7-14.6,12.6s34.3-0.5,33.3-5S398.7,157.1,387.8,162z"/>
		<path id="XMLID_108_" class="st2" d="M388.2,162c0,0-0.9,0.4-2.2,1c-0.2,0.1,3.4,0.4,6.7,0c3-0.4,5.7-1.4,5.4-1.5
			C395.6,160.4,392.2,160.3,388.2,162z"/>
		<path id="XMLID_102_" class="st3" d="M389.6,161.6c0,0-0.6,0.2-1.4,0.6c-0.1,0.1,2.2,0.3,4.3,0c1.9-0.2,3.6-0.9,3.5-1
			C394.4,160.5,392.2,160.4,389.6,161.6z"/>
		<path id="XMLID_101_" class="st4" d="M375.2,168.9c-3.2,2.3-5,4.6-2,5.7c7.4,2.9,34.3-0.5,33.3-5c-0.3-1.4-1.2-3.2-2.6-4.8
			c-0.3-0.4-6.7,2.4-12.4,3.5C385.4,169.6,377.7,167.1,375.2,168.9z"/>
	</g>
	<path id="XMLID_20_" class="st5" d="M214.5,104.7"/>
	<g id="XMLID_68_">
		<path id="XMLID_91_" class="st6" d="M258.4,125.3c0.1-5.1,0.2-10.4,0.2-15.8H78.1c0,0-8.3,90,31.4,138h116.6c0,0,10-7.3,18.9-33.3
			c4.8-5.8,6.9-7.3,19.8-11.8c14.4-5.1,28-5.4,30-46C296.6,120.8,266,124,258.4,125.3z M268.6,190.9c-6,2.2-9.9,2.4-15.9,1.6
			c-0.6-0.1-1.1-0.2-1.6-0.3c3-13.8,5.5-30.9,6.7-51.9c5.9-5.8,14.4-2.9,14.4-2.9s11.5,2.5,12.6,22
			C286,178.8,274.6,188.7,268.6,190.9z"/>
		<path id="XMLID_89_" class="st7" d="M131.7,109.4H78.1c0,0-2.3,24.8,1.3,55.4C82.7,192.4,131.7,109.4,131.7,109.4z"/>
		<path id="XMLID_86_" class="st8" d="M258.4,125.3c0.1-5.1,0.2-10.4,0.2-15.8H245c0,0-5.8,28-44.8,76.9S134,246.6,134,246.6
			l92.2,0.9c0,0,10-7.3,18.9-33.3c4.8-5.8,6.9-7.3,19.8-11.8c14.4-5.1,28-5.4,30-46C296.6,120.8,266,124,258.4,125.3z M268.6,190.9
			c-6,2.2-9.9,2.4-15.9,1.6c-0.6-0.1-1.1-0.2-1.6-0.3c3-13.8,5.5-30.9,6.7-51.9c5.9-5.8,14.4-2.9,14.4-2.9s11.5,2.5,12.6,22
			C286,178.8,274.6,188.7,268.6,190.9z"/>
		<path id="XMLID_85_" class="st7" d="M232.7,262.4H103.4c-2.1,0-3.7-5.6-3.7-5.6c0-0.9,1.7-1.6,3.7-1.6h129.3
			c2.1,0,3.7,0.7,3.7,1.6C236.5,256.7,234.8,262.4,232.7,262.4z"/>
		<polygon id="XMLID_84_" class="st9" points="235.3,259.7 100.9,259.7 100.6,259.1 99.8,257.4 236.3,257.3 		"/>
		<path id="XMLID_83_" class="st7" d="M243.4,258.4H92.8c-2.4,0-4.4-11.3-4.4-11.3c0-1.8,2-3.3,4.4-3.3h150.6c2.4,0,4.4,1.5,4.4,3.3
			C247.7,247.2,245.8,258.4,243.4,258.4z"/>
	</g>
	<g id="XMLID_67_">
		<g id="XMLID_2_">
			<g id="XMLID_41_">
				<path id="XMLID_124_" d="M288.1,196c3.2,0,3.2-5,0-5C284.9,191,284.9,196,288.1,196L288.1,196z"/>
			</g>
		</g>
		<g id="XMLID_30_">
			<g id="XMLID_125_">
				<path id="XMLID_129_" d="M291,195.1c3.2,0,3.2-5,0-5C287.8,190.1,287.8,195.1,291,195.1L291,195.1z"/>
			</g>
		</g>
		<rect id="XMLID_71_" x="273.1" y="181.5" class="st7" width="238" height="82.6"/>
		<rect id="XMLID_26_" x="273.1" y="181.5" class="st10" width="238" height="82.6"/>
		<path id="XMLID_29_" class="st11" d="M445.3,181.5h65.8v82.6H387.7c0,0,18.3-14.3,34.5-37.7S445.3,181.5,445.3,181.5z"/>
		<rect id="XMLID_33_" x="273.1" y="212.9" class="st12" width="238" height="30.9"/>
		<path id="XMLID_28_" d="M510.5,181.4H274.4c-1.8,0-3.3-1.5-3.3-3.3v-3.8c0-1.8,1.5-3.3,3.3-3.3h236.2c1.8,0,3.3,1.5,3.3,3.3v3.8
			C513.9,179.9,512.4,181.4,510.5,181.4z"/>
		<path id="XMLID_27_" d="M511,215.8H273.9c-1.6,0-2.8-1.3-2.8-2.8v0c0-1.6,1.3-2.8,2.8-2.8H511c1.6,0,2.8,1.3,2.8,2.8v0
			C513.9,214.5,512.6,215.8,511,215.8z"/>
		<path id="XMLID_1_" d="M511.4,245H274.2c-1.6,0-2.8-1.3-2.8-2.8l0,0c0-1.6,1.3-2.8,2.8-2.8h237.2c1.6,0,2.8,1.3,2.8,2.8l0,0
			C514.2,243.8,512.9,245,511.4,245z"/>
		<path id="XMLID_69_" d="M467.7,180.6c0.3,0.5,0.8,12.3,7,12.3s4.6-10.3,4.9-10.7s7.7-0.9,8.1,0.3c1.5,5.1,3.3,17.9,11.9,17.9
			c10.6,0,11.2-28.3,11.2-28.3S467.4,180.1,467.7,180.6z"/>
		<path id="XMLID_66_" d="M419.1,174.4c0,0-16.9,7.2-17.1,7.6c-0.2,0.4,1.3,8.6-3.6,8.6c-4.8,0-3.5-8-3.8-8.3
			c-0.3-0.3-6-0.7-6.2,0.2c-1.2,4-2.6,13.8-9.2,13.8c-8.2,0-8.6-21.9-8.6-21.9H419.1z"/>
		<path id="XMLID_34_" d="M273.2,176.6c0,0,1.6,17.4,6.1,17.4c3.6,0,5.1-7.8,5.5-10.8c0.1-0.8,1.9-0.8,2.1-0.5
			c0.2,0.3-1,6.9,2.9,6.9s2.8-6.4,3.1-6.6c0.2-0.3,4.8-0.6,5,0.2c0.9,3.2,2.1,11.1,7.4,11.1c6.6,0,6.9-17.6,6.9-17.6H273.2z"/>
		<path id="XMLID_25_" class="st7" d="M504.6,280.3H279.4c-3.6,0-6.5-5.6-6.5-5.6c0-0.9,2.9-1.6,6.5-1.6h225.2
			c3.6,0,6.5,0.7,6.5,1.6C511.2,274.7,508.2,280.3,504.6,280.3z"/>
		<polygon id="XMLID_24_" class="st9" points="509.1,277.6 275,277.7 274.5,277 273.1,275.3 510.8,275.3 		"/>
		<path id="XMLID_23_" class="st7" d="M518.8,276.3H263.7c-4.1,0-7.4-11.3-7.4-11.3c0-1.8,3.3-3.3,7.4-3.3h255.1
			c4.1,0,7.4,1.5,7.4,3.3C526.2,265,522.9,276.3,518.8,276.3z"/>
	</g>
	<g id="XMLID_11_">
		<path id="XMLID_5_" class="st0" d="M153.6,2.6c-8.5,11-5.5,28.9-1.4,40.7c4,11.7,8,23.2,5.8,35.8c-0.7,4-1.9,8.6-4.4,12
			c-0.7,0.9,2.2,0.6,2.7-0.1c8.4-11.2,5.5-29.2,1.4-41.2c-4-11.6-8-23.1-5.8-35.6c0.7-3.9,1.9-8.5,4.4-11.7
			C156.9,1.7,154.1,2,153.6,2.6L153.6,2.6z"/>
	</g>
	<g id="XMLID_9_">
		<path id="XMLID_4_" class="st0" d="M187.3,27.2c-10.2,13.4,9.8,30.9,0,44.3c-0.7,0.9,2.2,0.6,2.7-0.1c10-13.6-10-31.1,0-44.3
			C190.6,26.2,187.8,26.5,187.3,27.2L187.3,27.2z"/>
	</g>
</g>
</svg>
