<?xml version="1.0" encoding="utf-8"?>
<!-- Generator: Adobe Illustrator 19.0.0, SVG Export Plug-In . SVG Version: 6.00 Build 0)  -->
<svg version="1.1" id="Layer_1" xmlns="http://www.w3.org/2000/svg" xmlns:xlink="http://www.w3.org/1999/xlink" x="0px" y="0px"
	 width="59.6px" height="57px" viewBox="-449 252 59.6 57" style="enable-background:new -449 252 59.6 57;" xml:space="preserve">
<style type="text/css">
	.st0{fill:#1C110B;}
</style>
<path class="st0" d="M-391.5,273.3c-2.8-4.8-7-7.5-12.1-9.6c-4.6-1.8-10-2.9-15.6-2.9s-11,1.1-15.6,2.9c-5.1,2.1-9.3,4.8-12.1,9.6
	c-2.8,4.8-2.7,11.2,1.3,16.3c4.8,6.2,14.4,10.6,26.4,10.6s21.6-4.4,26.4-10.6C-388.8,284.4-388.7,278.1-391.5,273.3z M-395.4,287.9
	c-4.5,5.3-13.1,9.1-23.7,9.1s-19.2-3.8-23.7-9.1c-3.9-4.6-4.2-10.2-1.8-14.6c2.4-4.4,6.3-7,10.9-9c4.2-1.7,9.2-2.8,14.5-2.8
	s10.3,1,14.6,2.8c4.7,2,8.6,4.6,11,9C-391.2,277.7-391.6,283.4-395.4,287.9z M-405,264.5c-4.1-1.7-9-2.7-14.2-2.7
	c-5.1,0-10.1,1-14.2,2.7c-4.5,2-8.3,4.6-10.5,8.8c-2.2,4.2-1.8,9.7,2,14c4.4,5.1,12.6,8.6,22.7,8.6s18.3-3.5,22.7-8.6
	c3.8-4.3,4.2-9.8,2-14C-396.7,269-400.5,266.4-405,264.5z M-415.3,263.1c1,0,1.9,0.4,2,0.9s-0.7,1-1.8,1c-1.1,0-2-0.5-2-1
	S-416.3,263.1-415.3,263.1z M-417.1,268.2c1.9,0,3.6,0.8,3.8,2s-1.4,2.3-3.6,2.3c-2.1,0-3.8-1.1-3.8-2.3
	C-420.7,269.1-419.1,268.2-417.1,268.2z M-439.7,272c0.4-1,2.1-1.8,3.8-1.8c1.6,0,2.8,0.7,2.5,1.8c-0.3,1.1-2.1,2-3.9,2
	S-440.2,273-439.7,272z M-428.7,282.2c-0.4,2.1-3.2,4-6.2,4s-4.8-1.9-4-4c0.7-2.1,3.4-3.5,6-3.5
	C-430.3,278.7-428.4,280.1-428.7,282.2z M-426.9,275c-1.3,0-2.3-0.7-2.1-1.5s1.3-1.4,2.6-1.4c1.3,0,2.2,0.6,2.1,1.4
	S-425.5,275-426.9,275z M-426.3,267.2c-1.7,0-2.9-0.8-2.7-1.6c0.3-0.9,1.7-1.5,3.3-1.5c1.6,0,2.8,0.6,2.7,1.5
	C-423.1,266.4-424.6,267.2-426.3,267.2z M-417.8,291.2c-2.5,0-4.4-1.7-4.3-3.6c0.1-1.9,1.9-3.2,4.1-3.2s4.1,1.3,4.3,3.2
	C-413.5,289.5-415.3,291.2-417.8,291.2z M-415.9,278.8c-1.6,0-3-0.9-3-2c0-1,1.3-1.8,2.8-1.8s2.9,0.8,3,1.8
	C-413,277.9-414.2,278.8-415.9,278.8z M-408.4,266.9c-0.2-0.5,0.5-0.9,1.4-0.9s1.8,0.4,2,0.9s-0.4,0.9-1.4,0.9
	S-408.3,267.4-408.4,266.9z M-403.4,270.5c2.2,0,4.5,1,5.2,2.5c0.6,1.5-0.8,2.8-3.3,2.8s-4.9-1.3-5.3-2.8
	C-407.2,271.6-405.7,270.5-403.4,270.5z M-401.1,286.1c-2.5,0-4.9-1.6-5.3-3.4c-0.4-1.7,1.1-3,3.4-3c2.2,0,4.5,1.2,5.2,3
	S-398.6,286.1-401.1,286.1z"/>
</svg>
