<?xml version="1.0" encoding="utf-8"?>
<!-- Generator: Adobe Illustrator 19.0.0, SVG Export Plug-In . SVG Version: 6.00 Build 0)  -->
<svg version="1.1" id="Layer_1" xmlns="http://www.w3.org/2000/svg" xmlns:xlink="http://www.w3.org/1999/xlink" x="0px" y="0px"
	 width="59.6px" height="57px" viewBox="-449 252 59.6 57" style="enable-background:new -449 252 59.6 57;" xml:space="preserve">
<style type="text/css">
	.st0{fill:#1C110B;}
	.st1{display:none;fill:#1C110B;}
</style>
<g id="XMLID_80_">
	<g id="XMLID_140_">
		<path id="XMLID_146_" class="st0" d="M-441.6,260.7c-0.3,0.6,0,1.3,0.1,2.1c8.1-0.4,16.2-0.8,24.3-1.1c0-0.5-0.1-0.6,0.3-0.8
			c-0.1-1.4,3.8-1.6,3.8,0.1c1.1,0.5,0.7,1.7-0.1,2.3c-0.1,0-0.2,0.1-0.2,0.1c0,0.9,0,1.3,0,1.3c-1,0-2.1,0-3.1,0c0-0.9,0-0.3,0-1.2
			c-8.3,0.2-16.6,0.3-24.9,0.5c-0.1,0.1-0.2,0.2-0.3,0.4c-0.7,1.8-4,1-3.5-1.4c-0.1-0.8,0.1-1.5-0.2-2.1
			C-451.3,249.3-436.1,249.2-441.6,260.7z"/>
		<path id="XMLID_145_" class="st0" d="M-427.1,267.5c-1.1-0.2-2.1-2-3.2-2.2h15.4h0.3h15.4c-1.1,0.2-2.1,2-3.2,2.2
			c-2,4.8-3,4.2-6.4,6.5c0,0.7,0,1.4,0,2.1l3.3,3h-18.6l3.3-3c0-0.7,0-1.4,0-2.1C-424.1,271.7-425.1,272.3-427.1,267.5z"/>
		<path id="XMLID_142_" class="st0" d="M-437.1,282.2h3.4V306h-3.5c-1.6,0-1.2,2.9,0,2.9c14.7,0,29.4,0,44.1,0c1.8,0,1.9-2.9,0-2.9
			c-0.9,0-1.8,0-2.7,0v-1.8v-22h3.2c1.2,0,1.3-2.5,0-2.5h-44.6C-438.7,279.8-438.8,282.2-437.1,282.2z M-426,294.6
			c0-1.7,1.4-3.1,3.2-3.1h16.6c1.8,0,3.2,1.4,3.2,3.1v6.5c0,1.7-1.4,3.1-3.2,3.1h-16.6c-1.8,0-3.2-1.4-3.2-3.1V294.6z"/>
		<path id="XMLID_141_" class="st0" d="M-414.5,293.5c0.6,0,1.1,0.5,1.1,1.1s-0.5,1.1-1.1,1.1s-1.1-0.5-1.1-1.1
			S-415.1,293.5-414.5,293.5z"/>
	</g>
</g>
<path id="XMLID_47_" class="st1" d="M-868.2,512.8c5.6,0,11,1.1,15.6,2.9c5.1,2.1,9.3,4.8,12.1,9.6c2.8,4.8,2.7,11.1-1.3,16.3
	c-4.8,6.2-14.4,10.6-26.4,10.6s-21.6-4.4-26.4-10.6c-4-5.1-4.1-11.5-1.3-16.3s7-7.5,12.1-9.6C-879.2,513.9-873.8,512.8-868.2,512.8
	L-868.2,512.8z M-850.5,527.8c-2.5,0-4.9-1.3-5.3-2.8c-0.4-1.4,1.1-2.5,3.4-2.5c2.2,0,4.5,1,5.2,2.5
	C-846.6,526.5-848,527.8-850.5,527.8L-850.5,527.8z M-884.9,522.2c-1.7,0-3.4,0.8-3.8,1.8c-0.5,1,0.6,2,2.4,2s3.6-0.9,3.9-2
	C-882.1,522.9-883.3,522.2-884.9,522.2L-884.9,522.2z M-866.1,520.2c-2,0-3.6,0.9-3.6,2c0,1.2,1.7,2.3,3.8,2.3
	c2.2,0,3.8-1.1,3.6-2.3C-862.5,521-864.2,520.2-866.1,520.2L-866.1,520.2z M-864.1,517c-1.1,0-2-0.5-2-1s0.8-0.9,1.8-0.9
	s1.9,0.4,2,0.9C-862.2,516.5-863,517-864.1,517L-864.1,517z M-866.8,543.2c-2.5,0-4.4-1.7-4.3-3.6c0.1-1.9,1.9-3.2,4.1-3.2
	c2.2,0,4.1,1.3,4.3,3.2C-862.5,541.5-864.3,543.2-866.8,543.2L-866.8,543.2z M-874.7,516.1c-1.6,0-3,0.6-3.3,1.5
	c-0.2,0.8,1,1.6,2.7,1.6s3.2-0.8,3.3-1.6C-871.9,516.7-873.1,516.1-874.7,516.1L-874.7,516.1z M-865.1,527c-1.5,0-2.8,0.8-2.8,1.8
	c0,1.1,1.4,2,3,2c1.7,0,2.9-0.9,2.8-2C-862.2,527.8-863.6,527-865.1,527L-865.1,527z M-852,531.7c-2.3,0-3.8,1.3-3.4,3
	c0.4,1.8,2.8,3.4,5.3,3.4s4-1.6,3.3-3.4C-847.5,532.9-849.8,531.7-852,531.7L-852,531.7z M-856,518c-0.9,0-1.6,0.4-1.4,0.9
	c0.1,0.5,1,0.9,2,0.9s1.6-0.4,1.4-0.9S-855.1,518-856,518L-856,518z M-883.9,538.2c-3,0-4.8-1.9-4-4c0.7-2.1,3.4-3.5,6-3.5
	c2.6,0,4.5,1.4,4.2,3.5C-878.1,536.3-880.9,538.2-883.9,538.2L-883.9,538.2z M-875.9,527c-1.3,0-2.3-0.7-2.1-1.5s1.3-1.4,2.6-1.4
	c1.3,0,2.2,0.6,2.1,1.4S-874.5,527-875.9,527L-875.9,527z M-868.2,513.5c5.3,0,10.3,1,14.6,2.8c4.7,2,8.6,4.6,11,9
	c2.4,4.4,2,10.1-1.8,14.6c-4.5,5.3-13.1,9.1-23.7,9.1c-10.6,0-19.2-3.8-23.7-9.1c-3.9-4.6-4.2-10.2-1.8-14.6c2.4-4.4,6.3-7,10.9-9
	C-878.5,514.6-873.5,513.5-868.2,513.5L-868.2,513.5z M-868.2,513.8c5.2,0,10.1,1,14.2,2.7c4.5,1.9,8.3,4.5,10.5,8.8
	c2.2,4.2,1.8,9.7-2,14c-4.4,5.1-12.6,8.6-22.7,8.6s-18.3-3.5-22.7-8.6c-3.8-4.3-4.2-9.8-2-14s6-6.8,10.5-8.8
	C-878.3,514.8-873.3,513.8-868.2,513.8L-868.2,513.8z"/>
</svg>
