<?xml version="1.0" encoding="utf-8"?>
<!-- Generator: Adobe Illustrator 19.0.0, SVG Export Plug-In . SVG Version: 6.00 Build 0)  -->
<svg version="1.1" id="Layer_1" xmlns="http://www.w3.org/2000/svg" xmlns:xlink="http://www.w3.org/1999/xlink" x="0px" y="0px"
	 width="177.4px" height="57.3px" viewBox="0 0 177.4 57.3" style="enable-background:new 0 0 177.4 57.3;" xml:space="preserve">
<style type="text/css">
	.st0{fill:#FFFFFF;}
	.st1{fill:#F57C00;}
	.st2{fill:#1C110B;}
	.st3{fill:#FF9800;}
</style>
<polygon id="XMLID_178_" class="st0" points="0.3,57 0,57.4 0,57 "/>
<polygon id="XMLID_177_" class="st1" points="175,29.2 161.5,43.1 174.8,57 0.3,57 13.7,43.2 0,29.2 0,57 0,29 175,29 "/>
<g id="XMLID_25_">
	<path id="XMLID_30_" class="st0" d="M21.9,49.6c-0.7,0-1.2-0.1-1.7-0.3c-0.5-0.2-0.9-0.5-1.3-0.9c-0.4-0.4-0.6-0.9-0.8-1.4
		c-0.2-0.6-0.3-1.2-0.3-1.9c0-0.4,0-0.8,0.1-1.3c0.1-0.4,0.1-0.9,0.3-1.3c0.2-0.7,0.4-1.4,0.7-2s0.6-1.2,1-1.8
		c0.4-0.5,0.8-1,1.3-1.5s0.9-0.8,1.5-1.1c0.5-0.3,1-0.6,1.6-0.7c0.6-0.2,1.1-0.3,1.7-0.3c0.3,0,0.5,0,0.8,0.1s0.5,0.2,0.7,0.3
		c0.2,0.2,0.4,0.4,0.5,0.6c0.1,0.3,0.2,0.6,0.2,0.9c0,0.3,0,0.6-0.1,0.9s-0.2,0.5-0.4,0.8c-0.2,0.2-0.4,0.4-0.6,0.6
		c-0.2,0.2-0.5,0.4-0.7,0.5l-0.2-0.2c0.5-0.4,0.8-0.8,1.1-1.3c0.2-0.5,0.3-0.9,0.3-1.5c0-0.5-0.1-0.9-0.4-1.2
		c-0.2-0.2-0.6-0.4-1.1-0.4c-0.6,0-1.2,0.2-1.8,0.5c-0.6,0.4-1.2,0.8-1.8,1.5c-0.6,0.6-1.1,1.4-1.6,2.2c-0.5,0.8-0.9,1.8-1.2,2.7
		c-0.2,0.6-0.4,1.3-0.5,1.9c-0.1,0.6-0.2,1.2-0.2,1.7c0,2.2,1,3.3,2.9,3.3c1.1,0,2.1-0.4,3.1-1.1c0.9-0.7,1.8-1.8,2.7-3.3l0.5-0.8
		l0.2,0.2L28.1,45c-0.4,0.8-0.9,1.5-1.4,2c-0.5,0.6-0.9,1.1-1.4,1.4c-0.5,0.4-1,0.7-1.6,0.8C23.1,49.5,22.5,49.6,21.9,49.6z"/>
	<path id="XMLID_35_" class="st0" d="M28.2,44.1c0.2-0.8,0.5-1.5,0.9-2.2s0.9-1.3,1.4-1.7c0.5-0.5,1.1-0.9,1.7-1.2
		c0.6-0.3,1.2-0.4,1.8-0.4c0.5,0,0.9,0.1,1.3,0.3c0.3,0.2,0.6,0.4,0.8,0.7s0.4,0.6,0.4,1s0.1,0.8,0.1,1.2c0,0.4,0,0.9-0.1,1.3
		c-0.1,0.4-0.2,0.9-0.3,1.3c-0.1,0.3-0.2,0.5-0.3,0.7s-0.2,0.5-0.3,0.7c0.1,0.2,0.2,0.4,0.4,0.5c0.2,0.1,0.4,0.2,0.7,0.2
		c0.2,0,0.3,0,0.5-0.1s0.4-0.1,0.6-0.3c0.2-0.1,0.4-0.3,0.6-0.5s0.4-0.4,0.5-0.7l0.5-0.8l0.2,0.2L39,45c-0.2,0.4-0.5,0.7-0.7,0.9
		c-0.2,0.2-0.5,0.4-0.7,0.5c-0.2,0.1-0.4,0.2-0.6,0.2c-0.2,0-0.4,0-0.5,0c-0.3,0-0.5,0-0.7-0.1c-0.2-0.1-0.4-0.2-0.6-0.3
		c-0.3,0.5-0.6,0.9-1,1.3s-0.7,0.7-1.1,1s-0.8,0.5-1.2,0.6c-0.4,0.1-0.8,0.2-1.3,0.2c-0.4,0-0.8-0.1-1.1-0.2
		c-0.3-0.1-0.6-0.4-0.8-0.6c-0.2-0.3-0.4-0.6-0.5-1c-0.1-0.4-0.2-0.9-0.2-1.4c0-0.3,0-0.7,0.1-1C28,44.8,28.1,44.4,28.2,44.1z
		 M30.7,49c0.3,0,0.7-0.1,1-0.2c0.4-0.2,0.7-0.4,1-0.7c0.3-0.3,0.7-0.6,1-1c0.3-0.4,0.6-0.9,0.9-1.4c-0.1-0.1-0.1-0.3-0.2-0.4
		c0-0.1,0-0.3,0-0.4c0-0.2,0-0.3,0.1-0.5c0-0.2,0.1-0.3,0.2-0.5c0.1-0.1,0.2-0.3,0.4-0.4c0.2-0.1,0.3-0.2,0.5-0.3
		c0.1-0.3,0.2-0.7,0.2-1S36,41.4,36,41c0-0.3,0-0.6-0.1-0.8c-0.1-0.3-0.1-0.5-0.3-0.7c-0.1-0.2-0.3-0.3-0.5-0.5s-0.5-0.2-0.8-0.2
		c-0.5,0-0.9,0.1-1.4,0.4c-0.5,0.2-0.9,0.6-1.3,1c-0.4,0.4-0.8,1-1.1,1.6c-0.3,0.6-0.6,1.3-0.8,2c-0.1,0.5-0.3,1-0.3,1.5
		c-0.1,0.5-0.1,1-0.1,1.4C29.3,48.3,29.8,49,30.7,49z"/>
	<path id="XMLID_38_" class="st0" d="M38.5,38.8h2.6l0.4-1c0.4-1.2,1-2.1,1.7-2.7c0.7-0.6,1.4-0.9,2.3-0.9c0.3,0,0.5,0,0.7,0.1
		c0.2,0.1,0.4,0.2,0.6,0.3c0.2,0.1,0.3,0.3,0.4,0.4s0.1,0.4,0.1,0.6c0,0.3-0.1,0.5-0.2,0.7c-0.1,0.2-0.3,0.2-0.6,0.2
		c-0.2,0-0.4-0.1-0.5-0.2c-0.1-0.1-0.2-0.3-0.2-0.5c0-0.2,0-0.3,0.1-0.5c0.1-0.1,0.2-0.2,0.4-0.2c0.1,0,0.1,0,0.2,0c0,0,0,0,0,0
		s0,0,0,0c0.1,0,0.1,0,0.1-0.1c0-0.1,0-0.2-0.1-0.2s-0.2-0.1-0.3-0.2c-0.1,0-0.2-0.1-0.4-0.1c-0.1,0-0.3,0-0.4,0
		c-0.3,0-0.5,0.1-0.8,0.2c-0.2,0.1-0.5,0.3-0.7,0.6c-0.2,0.3-0.4,0.6-0.6,1c-0.2,0.4-0.4,0.9-0.6,1.5l-0.4,1.1h2.7v0.4h-2.8
		l-5.4,14.8h-1.3L41,39.1h-2.4V38.8z"/>
	<path id="XMLID_41_" class="st0" d="M45.1,38.8h2.6l0.4-1c0.4-1.2,1-2.1,1.7-2.7c0.7-0.6,1.4-0.9,2.3-0.9c0.3,0,0.5,0,0.7,0.1
		c0.2,0.1,0.4,0.2,0.6,0.3c0.2,0.1,0.3,0.3,0.4,0.4s0.1,0.4,0.1,0.6c0,0.3-0.1,0.5-0.2,0.7c-0.1,0.2-0.3,0.2-0.6,0.2
		c-0.2,0-0.4-0.1-0.5-0.2c-0.1-0.1-0.2-0.3-0.2-0.5c0-0.2,0-0.3,0.1-0.5c0.1-0.1,0.2-0.2,0.4-0.2c0.1,0,0.1,0,0.2,0c0,0,0,0,0,0
		s0,0,0,0c0.1,0,0.1,0,0.1-0.1c0-0.1,0-0.2-0.1-0.2s-0.2-0.1-0.3-0.2c-0.1,0-0.2-0.1-0.4-0.1c-0.1,0-0.3,0-0.4,0
		c-0.3,0-0.5,0.1-0.8,0.2c-0.2,0.1-0.5,0.3-0.7,0.6c-0.2,0.3-0.4,0.6-0.6,1c-0.2,0.4-0.4,0.9-0.6,1.5l-0.4,1.1h2.7v0.4h-2.8
		l-5.4,14.8h-1.3l5.4-14.8h-2.4V38.8z"/>
	<path id="XMLID_43_" class="st0" d="M55.3,49.4c-1.1,0-1.9-0.3-2.5-0.8S52,47.2,52,46.1c0-0.3,0-0.6,0.1-1c0-0.3,0.1-0.7,0.2-1
		c0.2-0.8,0.5-1.5,0.9-2.2s0.8-1.3,1.3-1.7c0.5-0.5,1-0.9,1.6-1.1c0.6-0.3,1.2-0.4,1.7-0.4c0.6,0,1.1,0.1,1.4,0.4
		c0.3,0.3,0.5,0.7,0.5,1.2c0,0.3-0.1,0.6-0.2,0.8c-0.1,0.3-0.3,0.5-0.5,0.8c-0.2,0.2-0.5,0.5-0.8,0.7c-0.3,0.2-0.6,0.4-1,0.5
		c-0.5,0.2-1,0.3-1.5,0.4c-0.6,0.1-1.2,0.1-1.9,0.1c-0.2,0.5-0.3,1-0.4,1.5c-0.1,0.5-0.1,1-0.1,1.6c0,0.8,0.2,1.4,0.5,1.8
		c0.3,0.4,0.9,0.5,1.6,0.5c0.6,0,1.2-0.1,1.8-0.4c0.6-0.2,1.1-0.6,1.6-0.9s0.9-0.8,1.3-1.3s0.7-1,1-1.5l0.5-0.8l0.2,0.2L61.4,45
		c-0.4,0.6-0.8,1.2-1.2,1.8c-0.4,0.5-0.9,1-1.4,1.4c-0.5,0.4-1.1,0.7-1.6,0.9C56.6,49.3,56,49.4,55.3,49.4z M58.1,38.9
		c-0.4,0-0.7,0.1-1.1,0.3c-0.4,0.2-0.8,0.5-1.1,0.9c-0.4,0.4-0.7,0.8-1,1.4c-0.3,0.5-0.6,1.1-0.8,1.7c0.6,0,1.2-0.1,1.7-0.2
		s0.9-0.2,1.2-0.4c0.3-0.1,0.5-0.3,0.8-0.5s0.5-0.4,0.7-0.7s0.4-0.5,0.5-0.8c0.1-0.3,0.2-0.6,0.2-0.9c0-0.2,0-0.3-0.1-0.4
		c0-0.1-0.1-0.2-0.2-0.3S58.6,39,58.5,39C58.3,39,58.2,38.9,58.1,38.9z"/>
	<path id="XMLID_46_" class="st0" d="M64.7,49.4c-1.1,0-1.9-0.3-2.5-0.8s-0.9-1.4-0.9-2.5c0-0.3,0-0.6,0.1-1c0-0.3,0.1-0.7,0.2-1
		c0.2-0.8,0.5-1.5,0.9-2.2s0.8-1.3,1.3-1.7c0.5-0.5,1-0.9,1.6-1.1c0.6-0.3,1.2-0.4,1.7-0.4c0.6,0,1.1,0.1,1.4,0.4
		c0.3,0.3,0.5,0.7,0.5,1.2c0,0.3-0.1,0.6-0.2,0.8c-0.1,0.3-0.3,0.5-0.5,0.8c-0.2,0.2-0.5,0.5-0.8,0.7c-0.3,0.2-0.6,0.4-1,0.5
		c-0.5,0.2-1,0.3-1.5,0.4c-0.6,0.1-1.2,0.1-1.9,0.1c-0.2,0.5-0.3,1-0.4,1.5c-0.1,0.5-0.1,1-0.1,1.6c0,0.8,0.2,1.4,0.5,1.8
		c0.3,0.4,0.9,0.5,1.6,0.5c0.6,0,1.2-0.1,1.8-0.4c0.6-0.2,1.1-0.6,1.6-0.9s0.9-0.8,1.3-1.3s0.7-1,1-1.5L71,44l0.2,0.2L70.7,45
		c-0.4,0.6-0.8,1.2-1.2,1.8c-0.4,0.5-0.9,1-1.4,1.4c-0.5,0.4-1.1,0.7-1.6,0.9C65.9,49.3,65.3,49.4,64.7,49.4z M67.4,38.9
		c-0.4,0-0.7,0.1-1.1,0.3c-0.4,0.2-0.8,0.5-1.1,0.9c-0.4,0.4-0.7,0.8-1,1.4c-0.3,0.5-0.6,1.1-0.8,1.7c0.6,0,1.2-0.1,1.7-0.2
		s0.9-0.2,1.2-0.4c0.3-0.1,0.5-0.3,0.8-0.5s0.5-0.4,0.7-0.7s0.4-0.5,0.5-0.8c0.1-0.3,0.2-0.6,0.2-0.9c0-0.2,0-0.3-0.1-0.4
		c0-0.1-0.1-0.2-0.2-0.3S67.9,39,67.8,39C67.7,39,67.6,38.9,67.4,38.9z"/>
</g>
<g id="XMLID_2_">
	<path id="XMLID_3_" class="st0" d="M106.1,39c-0.1-0.1-0.1-0.3-0.2-0.5c0-0.2-0.1-0.4-0.1-0.6c0-0.4,0.1-0.8,0.2-1.1
		c0.2-0.3,0.4-0.6,0.6-0.8c0.3-0.2,0.6-0.4,1-0.5c0.4-0.1,0.8-0.2,1.2-0.2c0.2,0,0.4,0,0.6,0c0.2,0,0.3,0.1,0.4,0.1
		c0.1,0,0.3,0.1,0.4,0.1c0.2,0,0.3,0.1,0.5,0.1s0.4,0.1,0.7,0.1s0.6,0,1,0c0.3,0,0.6,0,0.8,0c0.2,0,0.4-0.1,0.6-0.1
		c0.2,0,0.4-0.1,0.6-0.2c0.2-0.1,0.4-0.1,0.7-0.2v0.2c-0.2,0-0.3,0.1-0.5,0.2s-0.4,0.2-0.6,0.4c-0.2,0.1-0.4,0.3-0.5,0.5
		c-0.2,0.2-0.3,0.3-0.4,0.5c-0.1,0.1-0.1,0.2-0.2,0.3c-0.1,0.1-0.1,0.3-0.2,0.4s-0.2,0.4-0.3,0.7s-0.2,0.6-0.4,1
		c-0.2,0.4-0.3,0.9-0.6,1.5c-0.2,0.6-0.5,1.3-0.8,2.1c0.6-0.1,1.3-0.3,1.9-0.5c0.7-0.2,1.3-0.4,2-0.6c0.2-0.6,0.5-1.2,0.8-1.7
		c0.3-0.6,0.6-1.1,1-1.6c0.3-0.5,0.7-0.9,1.1-1.4s0.8-0.8,1.2-1.1s0.8-0.5,1.3-0.7c0.4-0.2,0.9-0.2,1.3-0.2c0.2,0,0.5,0,0.6,0.1
		s0.3,0.1,0.4,0.2c0.1,0.1,0.2,0.2,0.2,0.4c0,0.1,0.1,0.3,0.1,0.5c0,0.4-0.1,0.8-0.4,1.2c-0.2,0.4-0.6,0.8-0.9,1.2s-0.8,0.7-1.3,1.1
		c-0.5,0.3-1,0.6-1.5,0.9c-0.4,0.2-0.8,0.4-1.2,0.6c-0.4,0.2-0.8,0.3-1.2,0.5c-0.2,0.5-0.3,0.9-0.5,1.4c-0.1,0.5-0.3,0.9-0.4,1.4
		s-0.2,0.9-0.2,1.3c-0.1,0.4-0.1,0.9-0.1,1.3c0,0.4,0,0.8,0.1,1.1c0.1,0.3,0.2,0.5,0.3,0.7c0.1,0.2,0.3,0.3,0.4,0.3s0.4,0.1,0.6,0.1
		c0.8,0,1.6-0.4,2.4-1.1c0.8-0.7,1.6-1.8,2.4-3.2l0.5-0.8l0.2,0.2l-0.5,0.8c-0.4,0.8-0.9,1.5-1.3,2.1s-0.8,1.1-1.3,1.4
		s-0.8,0.7-1.3,0.8c-0.4,0.2-0.9,0.3-1.3,0.3c-0.5,0-0.9-0.1-1.2-0.3s-0.6-0.4-0.7-0.7s-0.3-0.7-0.4-1.1s-0.1-0.8-0.1-1.3
		c0-0.7,0.1-1.3,0.2-2c0.1-0.7,0.3-1.4,0.6-2.1c-0.7,0.2-1.3,0.4-2,0.6s-1.3,0.3-1.9,0.4c-0.4,1.1-0.9,2.1-1.3,2.9
		c-0.4,0.8-0.9,1.5-1.4,2c-0.5,0.5-1,0.9-1.5,1.2c-0.5,0.3-1.1,0.4-1.8,0.4c-0.5,0-0.8-0.1-1.2-0.2c-0.3-0.1-0.6-0.3-0.8-0.5
		c-0.2-0.2-0.4-0.5-0.5-0.7c-0.1-0.3-0.2-0.6-0.2-0.9c0-0.5,0.1-1,0.4-1.4c0.2-0.4,0.6-0.7,1-1s0.9-0.5,1.5-0.7
		c0.6-0.2,1.2-0.4,1.8-0.5c0.3-0.1,0.7-0.1,1.2-0.2c0.4-0.1,0.9-0.2,1.4-0.3c0.2-0.5,0.4-0.9,0.5-1.3c0.2-0.4,0.3-0.7,0.4-1.1
		c0.1-0.3,0.2-0.6,0.3-0.8c0.1-0.2,0.2-0.5,0.3-0.7c0.1-0.2,0.2-0.4,0.3-0.5c0.1-0.2,0.2-0.3,0.3-0.5c0.1-0.2,0.2-0.4,0.4-0.6
		c0.1-0.2,0.3-0.4,0.5-0.6s0.4-0.4,0.6-0.6s0.4-0.4,0.7-0.6c-0.4,0.1-0.8,0.2-1.2,0.3c-0.4,0.1-0.8,0.1-1.1,0.1
		c-0.3,0-0.6,0-0.9-0.1c-0.3-0.1-0.6-0.1-0.9-0.2s-0.6-0.1-0.8-0.2c-0.2-0.1-0.5-0.1-0.6-0.1c-0.2,0-0.4,0-0.6,0.1
		c-0.2,0.1-0.4,0.2-0.5,0.4c-0.2,0.2-0.3,0.4-0.4,0.6s-0.1,0.5-0.1,0.8c0,0.4,0.1,0.7,0.2,0.9L106.1,39z M104.6,49.5
		c0.3,0,0.6,0,0.9-0.1s0.5-0.2,0.7-0.4c0.2-0.2,0.5-0.4,0.7-0.7c0.2-0.3,0.4-0.6,0.7-1.1c0.2-0.4,0.5-0.9,0.7-1.5
		c0.3-0.6,0.5-1.3,0.8-2.1c-0.4,0.1-0.9,0.2-1.3,0.3c-0.4,0.1-0.8,0.2-1.1,0.2c-0.6,0.1-1.1,0.3-1.6,0.5c-0.5,0.2-1,0.4-1.4,0.6
		c-0.4,0.3-0.7,0.6-0.9,0.9c-0.2,0.4-0.3,0.8-0.3,1.3c0,0.3,0,0.5,0.1,0.8c0.1,0.2,0.2,0.4,0.4,0.6c0.2,0.2,0.4,0.3,0.7,0.4
		C103.9,49.5,104.2,49.5,104.6,49.5z M121.5,35.7c-0.4,0-0.9,0.2-1.4,0.5c-0.5,0.3-0.9,0.7-1.4,1.2c-0.4,0.5-0.9,1.1-1.3,1.8
		s-0.8,1.4-1.1,2.2c0.3-0.1,0.7-0.3,1-0.4c0.3-0.2,0.7-0.3,1-0.5c0.5-0.3,1-0.5,1.5-0.9c0.5-0.3,0.9-0.6,1.3-1
		c0.4-0.3,0.7-0.7,0.9-1.1c0.2-0.4,0.3-0.7,0.3-1.1c0-0.3-0.1-0.5-0.2-0.6C122.1,35.7,121.8,35.7,121.5,35.7z"/>
	<path id="XMLID_7_" class="st0" d="M121.6,45c0.2-0.7,0.4-1.3,0.8-1.9c0.3-0.6,0.7-1.1,1.2-1.5c0.5-0.4,0.9-0.8,1.5-1
		c0.5-0.2,1.1-0.4,1.6-0.4c0.4,0,0.8,0.1,1.1,0.2c0.3,0.1,0.5,0.3,0.7,0.6c0.2,0.2,0.3,0.5,0.4,0.9c0.1,0.3,0.1,0.7,0.1,1
		c0,0.4,0,0.8-0.1,1.2c-0.1,0.4-0.2,0.8-0.3,1.1c-0.1,0.2-0.2,0.4-0.2,0.6c-0.1,0.2-0.2,0.4-0.3,0.6c0.1,0.2,0.2,0.3,0.3,0.4
		s0.3,0.2,0.6,0.2c0.1,0,0.3,0,0.5-0.1c0.2,0,0.3-0.1,0.5-0.2c0.2-0.1,0.3-0.2,0.5-0.4c0.2-0.2,0.3-0.4,0.5-0.6l0.4-0.7l0.2,0.1
		l-0.4,0.7c-0.2,0.3-0.4,0.6-0.6,0.8c-0.2,0.2-0.4,0.3-0.6,0.5c-0.2,0.1-0.4,0.2-0.5,0.2s-0.3,0-0.4,0c-0.2,0-0.5,0-0.6-0.1
		c-0.2-0.1-0.4-0.2-0.5-0.3c-0.3,0.4-0.5,0.8-0.9,1.1c-0.3,0.3-0.6,0.6-1,0.9c-0.3,0.2-0.7,0.4-1.1,0.5c-0.4,0.1-0.7,0.2-1.1,0.2
		s-0.7-0.1-1-0.2c-0.3-0.1-0.5-0.3-0.7-0.6c-0.2-0.2-0.4-0.6-0.5-0.9c-0.1-0.4-0.2-0.8-0.2-1.2c0-0.3,0-0.6,0.1-0.9
		C121.5,45.6,121.5,45.3,121.6,45z M123.8,49.3c0.3,0,0.6-0.1,0.9-0.2c0.3-0.1,0.6-0.3,0.9-0.6s0.6-0.6,0.9-0.9
		c0.3-0.4,0.5-0.8,0.8-1.2c-0.1-0.1-0.1-0.2-0.1-0.4s0-0.3,0-0.4c0-0.1,0-0.3,0.1-0.4c0-0.1,0.1-0.3,0.2-0.4
		c0.1-0.1,0.2-0.2,0.3-0.3c0.1-0.1,0.3-0.2,0.5-0.2c0.1-0.3,0.1-0.6,0.2-0.9c0.1-0.3,0.1-0.6,0.1-0.9c0-0.2,0-0.5-0.1-0.7
		s-0.1-0.4-0.2-0.6c-0.1-0.2-0.3-0.3-0.4-0.4c-0.2-0.1-0.4-0.1-0.7-0.1c-0.4,0-0.8,0.1-1.2,0.3c-0.4,0.2-0.8,0.5-1.1,0.9
		c-0.4,0.4-0.7,0.9-1,1.4s-0.5,1.1-0.7,1.8c-0.1,0.4-0.2,0.9-0.3,1.3c-0.1,0.4-0.1,0.8-0.1,1.2C122.5,48.7,123,49.3,123.8,49.3z"/>
	<path id="XMLID_10_" class="st0" d="M132.9,40.4h1.1l-2,5.4c-0.1,0.2-0.1,0.4-0.2,0.6c-0.1,0.2-0.1,0.4-0.2,0.6
		c-0.1,0.2-0.1,0.4-0.1,0.6c0,0.2,0,0.4,0,0.5c0,0.4,0.1,0.6,0.3,0.9c0.2,0.2,0.5,0.3,0.9,0.3c0.3,0,0.7-0.1,1-0.2s0.6-0.4,1-0.7
		s0.6-0.7,1-1.1s0.6-1,1-1.6l0.4-0.7l1.7-4.6h1.1l-2,5.4c-0.1,0.2-0.1,0.4-0.2,0.6c-0.1,0.2-0.1,0.4-0.2,0.6s-0.1,0.4-0.1,0.6
		c0,0.2-0.1,0.4-0.1,0.5c0,0.4,0.1,0.6,0.3,0.9c0.2,0.2,0.5,0.3,0.9,0.3c0.3,0,0.7-0.1,1-0.2c0.3-0.1,0.6-0.4,1-0.7s0.6-0.7,1-1.1
		c0.3-0.5,0.7-1,1-1.6l0.4-0.7l0.2,0.1l-0.4,0.7c-0.4,0.7-0.7,1.2-1.1,1.7c-0.3,0.5-0.7,0.9-1,1.2s-0.7,0.6-1.1,0.7
		c-0.4,0.2-0.7,0.2-1.1,0.2c-0.3,0-0.6,0-0.8-0.1c-0.2-0.1-0.4-0.2-0.6-0.4c-0.2-0.2-0.3-0.4-0.4-0.6c-0.1-0.2-0.1-0.5-0.1-0.8
		c0-0.2,0-0.4,0.1-0.7c0-0.2,0.1-0.5,0.2-0.7c-0.3,0.6-0.7,1.1-1,1.5c-0.3,0.4-0.6,0.8-1,1.1c-0.3,0.3-0.6,0.5-1,0.6
		c-0.3,0.1-0.7,0.2-1.1,0.2c-0.3,0-0.6,0-0.8-0.1s-0.4-0.2-0.6-0.4c-0.2-0.2-0.3-0.4-0.4-0.6c-0.1-0.2-0.1-0.5-0.1-0.8
		c0-0.3,0-0.6,0.1-0.9c0.1-0.3,0.2-0.7,0.3-1L132.9,40.4z"/>
	<path id="XMLID_12_" class="st0" d="M141.6,47.4c0-0.3,0-0.5,0.1-0.8s0.1-0.5,0.2-0.7c0.1-0.2,0.2-0.4,0.3-0.6
		c0.1-0.2,0.3-0.3,0.4-0.4l3.3-4.7c0.1-0.4,0.2-0.8,0.3-1s0.3-0.4,0.5-0.4c0.2,0,0.3,0,0.4,0.1c0.1,0.1,0.2,0.2,0.2,0.3
		c0,0.1,0,0.2-0.1,0.2c0,0.1-0.1,0.1-0.2,0.2c-0.1,0.1-0.2,0.2-0.3,0.3c-0.1,0.1-0.1,0.2-0.2,0.3c-0.1,0.1-0.1,0.2-0.1,0.3
		c0,0.1,0,0.2,0,0.3s0,0.2,0,0.4s0.1,0.3,0.1,0.5c0,0.2,0.1,0.4,0.2,0.7s0.2,0.6,0.3,1.1c0.1,0.4,0.2,0.8,0.3,1.2
		c0.1,0.4,0.1,0.8,0.1,1.1c0,1.4-0.5,2.5-1.5,3.2c-0.3,0.2-0.6,0.4-1,0.5c-0.4,0.1-0.7,0.2-1.1,0.2c-0.3,0-0.6-0.1-0.9-0.2
		c-0.3-0.1-0.5-0.3-0.7-0.4c-0.2-0.2-0.3-0.4-0.4-0.7C141.7,48.1,141.6,47.8,141.6,47.4z M145.9,40.7l-2.8,4c0.2,0,0.3,0.1,0.4,0.2
		c0.1,0.1,0.1,0.3,0.1,0.4c0,0.1,0,0.2,0,0.3s-0.1,0.2-0.1,0.2c0,0.1-0.1,0.1-0.2,0.2s-0.1,0.1-0.2,0.1c-0.1,0-0.2,0-0.2-0.1
		c-0.1,0-0.1-0.1-0.2-0.1c-0.1,0-0.2,0-0.3,0.1s-0.2,0.2-0.2,0.3c-0.1,0.1-0.1,0.3-0.2,0.5c0,0.2-0.1,0.4-0.1,0.6
		c0,0.3,0,0.5,0.1,0.8c0.1,0.2,0.2,0.4,0.3,0.6c0.2,0.2,0.3,0.3,0.5,0.4c0.2,0.1,0.5,0.1,0.7,0.1c0.4,0,0.7-0.1,1-0.2
		c0.3-0.2,0.6-0.4,0.8-0.7c0.6-0.7,0.8-1.8,0.8-3.2c0-0.2,0-0.3,0-0.5c0-0.2,0-0.4,0-0.5s0-0.4-0.1-0.6c0-0.2-0.1-0.5-0.1-0.7
		c-0.1-0.5-0.1-0.8-0.2-1.2c0-0.3-0.1-0.6-0.1-0.8V40.7z"/>
	<path id="XMLID_22_" class="st0" d="M153.2,49.7c-0.9,0-1.7-0.2-2.2-0.7c-0.5-0.5-0.8-1.2-0.8-2.2c0-0.3,0-0.5,0.1-0.8
		c0-0.3,0.1-0.6,0.2-0.9c0.2-0.7,0.4-1.3,0.8-1.9c0.3-0.6,0.7-1.1,1.2-1.5s0.9-0.8,1.4-1s1-0.4,1.5-0.4c0.5,0,0.9,0.1,1.2,0.4
		s0.4,0.6,0.4,1c0,0.2,0,0.5-0.1,0.7c-0.1,0.2-0.2,0.5-0.4,0.7s-0.4,0.4-0.7,0.6c-0.3,0.2-0.6,0.3-0.9,0.5c-0.4,0.2-0.8,0.3-1.3,0.4
		s-1,0.1-1.7,0.1c-0.1,0.4-0.3,0.9-0.4,1.3c-0.1,0.5-0.1,0.9-0.1,1.4c0,0.7,0.2,1.2,0.5,1.5c0.3,0.3,0.8,0.5,1.4,0.5
		c0.5,0,1.1-0.1,1.5-0.3c0.5-0.2,0.9-0.5,1.4-0.8c0.4-0.3,0.8-0.7,1.1-1.2c0.3-0.4,0.6-0.9,0.9-1.3l0.4-0.7l0.2,0.1l-0.4,0.7
		c-0.3,0.6-0.7,1.1-1,1.6s-0.8,0.9-1.2,1.2s-0.9,0.6-1.4,0.8C154.3,49.6,153.8,49.7,153.2,49.7z M155.7,40.5c-0.3,0-0.7,0.1-1,0.3
		c-0.3,0.2-0.7,0.5-1,0.8s-0.6,0.7-0.9,1.2c-0.3,0.5-0.5,1-0.7,1.5c0.6,0,1.1-0.1,1.5-0.2s0.8-0.2,1.1-0.3c0.2-0.1,0.5-0.2,0.7-0.4
		c0.2-0.2,0.4-0.4,0.6-0.6c0.2-0.2,0.3-0.5,0.4-0.7c0.1-0.3,0.2-0.5,0.2-0.8c0-0.1,0-0.3-0.1-0.3c0-0.1-0.1-0.2-0.2-0.2
		c-0.1-0.1-0.2-0.1-0.3-0.1C155.9,40.5,155.8,40.5,155.7,40.5z"/>
</g>
<g id="XMLID_15_">
	<circle id="XMLID_29_" class="st0" cx="87.6" cy="43.1" r="11.2"/>
	<g id="XMLID_16_">
		<g id="XMLID_17_">
			<path id="XMLID_21_" class="st1" d="M86.7,41c-1.7,0-3.4,0-5.1,0c-0.3,0-0.4,0.1-0.4,0.3c-0.2,1.3,0.1,2.5,0.8,3.6
				c0.4,0.6,0.9,1.2,1.6,1.6c1.2,0.8,2.6,1.1,4,0.8c1.3-0.2,2.3-0.8,3.1-1.8c0.1-0.1,0.2-0.1,0.4-0.1c0.8,0.2,1.6,0.1,2.3-0.5
				c0.6-0.6,0.9-1.3,0.7-2.2c-0.2-1.1-1.2-1.8-2.4-1.8C90,41,88.3,41,86.7,41C86.7,41,86.7,41,86.7,41z M86.5,42.1
				C86.5,42.1,86.5,42.1,86.5,42.1c1.4,0,2.7,0,4.1,0c0.3,0,0.4,0.1,0.3,0.3c0,0.2-0.1,0.3-0.1,0.5c0,0.3-0.1,0.4-0.4,0.4
				c-0.1,0-0.2,0-0.3,0c-2.5,0-4.9,0-7.4,0c-0.1,0-0.3,0-0.4,0c-0.1,0-0.2-0.1-0.2-0.2c-0.1-0.2-0.1-0.4-0.1-0.5
				c0-0.4,0-0.5,0.4-0.5C83.9,42.1,85.2,42.1,86.5,42.1z M91.4,44.5c0.4-0.7,0.5-1.5,0.6-2.3c0-0.2,0.1-0.2,0.3-0.1
				c0.7,0.3,1,1.1,0.7,1.8C92.7,44.4,92,44.7,91.4,44.5z"/>
			<path id="XMLID_20_" class="st1" d="M87,49.5c1.8,0,3.6,0,5.5,0c0.4,0,0.4,0,0.4-0.4c0,0,0-0.1,0-0.1c0-0.4,0-0.4-0.4-0.4
				c-3,0-6.1,0-9.1,0c-0.6,0-1.3,0-1.9,0c-0.3,0-0.4,0.1-0.4,0.4c0,0.6,0,0.6,0.6,0.6C83.5,49.5,85.2,49.5,87,49.5z"/>
			<path id="XMLID_19_" class="st1" d="M89.1,38.8c-0.1-0.2-0.2-0.5-0.4-0.8c-0.1-0.2-0.3-0.4-0.5-0.6c-0.3-0.4-0.3-0.6,0.1-0.9
				c0.1-0.1,0.1-0.2,0.2-0.2c0.2-0.2,0.2-0.3,0-0.5c-0.1-0.2-0.3-0.1-0.4,0c-0.6,0.5-0.8,1-0.6,1.6c0.1,0.3,0.3,0.6,0.5,0.8
				c0,0,0.1,0.1,0.1,0.1c0.4,0.6,0.4,0.9-0.1,1.3c-0.2,0.2-0.2,0.3,0,0.5c0.2,0.2,0.3,0.1,0.4,0C88.7,39.8,89,39.4,89.1,38.8z"/>
			<path id="XMLID_18_" class="st1" d="M85.7,39.4c0.7-0.4,1.1-1,0.9-1.7c-0.1-0.2-0.3-0.5-0.4-0.7c-0.1-0.2-0.3-0.4-0.4-0.6
				c-0.2-0.2-0.1-0.5,0-0.7c0.1-0.1,0.2-0.2,0.3-0.3c0.2-0.2,0.2-0.3,0-0.5c-0.2-0.2-0.3-0.1-0.4,0.1c-0.2,0.2-0.4,0.4-0.6,0.7
				c-0.3,0.5-0.1,1,0.2,1.4c0.2,0.2,0.4,0.5,0.5,0.7c0.2,0.3,0.2,0.5,0,0.8c-0.1,0.1-0.1,0.1-0.2,0.2C85.4,39,85.4,39,85.7,39.4z"/>
		</g>
	</g>
</g>
<g id="XMLID_32_">
	<path id="XMLID_49_" class="st2" d="M2.3,19.7V1h6.4c2.1,0,3.7,0.4,4.8,1.3c1.1,0.8,1.7,2.1,1.7,3.8c0,0.9-0.2,1.6-0.7,2.3
		c-0.5,0.7-1.1,1.2-2,1.6c1,0.3,1.8,0.8,2.3,1.5c0.6,0.8,0.8,1.7,0.8,2.7c0,1.8-0.6,3.1-1.7,4c-1.1,0.9-2.7,1.4-4.8,1.4H2.3z
		 M5.5,8.9h3.2c1,0,1.8-0.2,2.4-0.7C11.7,7.7,12,7.1,12,6.2c0-0.9-0.3-1.6-0.8-2c-0.5-0.4-1.3-0.6-2.5-0.6H5.5V8.9z M5.5,11.3v5.8
		h3.6c1,0,1.8-0.3,2.4-0.8c0.6-0.5,0.9-1.2,0.9-2.1c0-1.9-1-2.9-3-3H5.5z"/>
	<path id="XMLID_53_" class="st2" d="M24.7,20c-2,0-3.6-0.6-4.8-1.9c-1.2-1.2-1.8-2.9-1.8-5v-0.4c0-1.4,0.3-2.6,0.8-3.7
		s1.3-1.9,2.3-2.6c1-0.6,2-0.9,3.2-0.9c1.9,0,3.4,0.6,4.4,1.8c1,1.2,1.5,2.9,1.5,5.1v1.3h-9.1c0.1,1.1,0.5,2.1,1.2,2.7
		c0.7,0.7,1.5,1,2.5,1c1.4,0,2.6-0.6,3.5-1.7l1.7,1.6c-0.6,0.8-1.3,1.5-2.2,1.9C26.9,19.7,25.9,20,24.7,20z M24.3,8
		c-0.9,0-1.5,0.3-2.1,0.9c-0.5,0.6-0.9,1.4-1,2.5h6v-0.2c-0.1-1-0.3-1.8-0.8-2.4C25.9,8.3,25.2,8,24.3,8z"/>
	<path id="XMLID_56_" class="st2" d="M41,19.7c-0.1-0.3-0.3-0.7-0.4-1.3c-1,1-2.2,1.6-3.7,1.6c-1.4,0-2.5-0.4-3.4-1.2
		c-0.9-0.8-1.3-1.8-1.3-3c0-1.5,0.6-2.6,1.7-3.4c1.1-0.8,2.7-1.2,4.7-1.2h1.9v-0.9c0-0.7-0.2-1.3-0.6-1.7s-1-0.6-1.8-0.6
		c-0.7,0-1.3,0.2-1.7,0.5c-0.5,0.4-0.7,0.8-0.7,1.4h-3.1c0-0.8,0.3-1.5,0.8-2.1c0.5-0.7,1.2-1.2,2.1-1.6c0.9-0.4,1.8-0.6,2.9-0.6
		c1.6,0,2.9,0.4,3.9,1.2c1,0.8,1.5,2,1.5,3.5v6.3c0,1.3,0.2,2.3,0.5,3v0.2H41z M37.6,17.5c0.6,0,1.2-0.1,1.7-0.4
		c0.5-0.3,1-0.7,1.2-1.2v-2.6h-1.7c-1.2,0-2,0.2-2.6,0.6c-0.6,0.4-0.9,1-0.9,1.7c0,0.6,0.2,1.1,0.6,1.4
		C36.4,17.3,36.9,17.5,37.6,17.5z"/>
	<path id="XMLID_59_" class="st2" d="M49.9,5.8L50,7.4c1-1.2,2.4-1.9,4-1.9c2.9,0,4.4,1.7,4.4,5v9.2h-3.1v-9c0-0.9-0.2-1.5-0.6-2
		c-0.4-0.4-1-0.6-1.9-0.6c-1.3,0-2.2,0.6-2.8,1.7v9.9h-3.1V5.8H49.9z"/>
	<path id="XMLID_61_" class="st2" d="M69.4,15.9c0-0.6-0.2-1-0.7-1.3c-0.5-0.3-1.2-0.5-2.3-0.8c-1.1-0.2-1.9-0.5-2.7-0.8
		c-1.6-0.8-2.3-1.8-2.3-3.3c0-1.2,0.5-2.2,1.5-3c1-0.8,2.3-1.2,3.9-1.2c1.7,0,3,0.4,4,1.2c1,0.8,1.5,1.9,1.5,3.2h-3.1
		c0-0.6-0.2-1.1-0.7-1.5c-0.4-0.4-1-0.6-1.8-0.6c-0.7,0-1.2,0.2-1.7,0.5c-0.4,0.3-0.6,0.7-0.6,1.3c0,0.5,0.2,0.9,0.6,1.1
		s1.2,0.5,2.4,0.8s2.2,0.6,2.9,1c0.7,0.4,1.2,0.8,1.6,1.3c0.3,0.5,0.5,1.2,0.5,1.9c0,1.3-0.5,2.3-1.6,3c-1,0.8-2.4,1.2-4.1,1.2
		c-1.1,0-2.2-0.2-3-0.6c-0.9-0.4-1.6-1-2.1-1.7S61,16.2,61,15.3h3c0,0.7,0.3,1.3,0.8,1.7s1.2,0.6,2,0.6c0.8,0,1.4-0.2,1.9-0.5
		C69.2,16.8,69.4,16.4,69.4,15.9z"/>
	<path id="XMLID_63_" class="st2" d="M81.3,14.7c0-0.9,0.2-1.7,0.7-2.4c0.5-0.7,1.4-1.6,2.8-2.6C84,8.8,83.5,8,83.2,7.4
		c-0.3-0.6-0.4-1.3-0.4-1.9c0-1.5,0.4-2.6,1.3-3.5c0.9-0.9,2.1-1.3,3.6-1.3c1.4,0,2.5,0.4,3.3,1.2c0.9,0.8,1.3,1.8,1.3,3
		c0,0.8-0.2,1.5-0.6,2.2c-0.4,0.7-1,1.3-1.9,2l-1.3,0.9l3.6,4.3c0.5-1,0.8-2.2,0.8-3.4h2.7c0,2.3-0.5,4.2-1.6,5.7l2.8,3.3h-3.6
		l-1.1-1.2c-1.3,1-2.9,1.5-4.8,1.5c-1.9,0-3.3-0.5-4.4-1.5S81.3,16.2,81.3,14.7z M87.5,17.5c1.1,0,2-0.4,3-1.1l-4.1-4.8l-0.4,0.3
		c-1,0.8-1.5,1.7-1.5,2.7c0,0.9,0.3,1.6,0.8,2.1S86.5,17.5,87.5,17.5z M85.7,5.4c0,0.7,0.4,1.6,1.3,2.7l1.4-1l0.4-0.3
		c0.5-0.5,0.8-1.1,0.8-1.8c0-0.5-0.2-0.9-0.6-1.3s-0.8-0.5-1.4-0.5c-0.6,0-1.1,0.2-1.5,0.6C85.9,4.3,85.7,4.8,85.7,5.4z"/>
	<path id="XMLID_67_" class="st3" d="M105.4,19.7V1h6.4c2.1,0,3.7,0.4,4.8,1.3c1.1,0.8,1.7,2.1,1.7,3.8c0,0.9-0.2,1.6-0.7,2.3
		c-0.5,0.7-1.1,1.2-2,1.6c1,0.3,1.8,0.8,2.3,1.5c0.6,0.8,0.8,1.7,0.8,2.7c0,1.8-0.6,3.1-1.7,4c-1.1,0.9-2.7,1.4-4.8,1.4H105.4z
		 M108.7,8.9h3.2c1,0,1.8-0.2,2.4-0.7c0.6-0.5,0.9-1.1,0.9-1.9c0-0.9-0.3-1.6-0.8-2c-0.5-0.4-1.3-0.6-2.5-0.6h-3.2V8.9z M108.7,11.3
		v5.8h3.6c1,0,1.8-0.3,2.4-0.8c0.6-0.5,0.9-1.2,0.9-2.1c0-1.9-1-2.9-3-3H108.7z"/>
	<path id="XMLID_71_" class="st3" d="M130.1,19.7c-0.1-0.3-0.3-0.7-0.4-1.3c-1,1-2.2,1.6-3.7,1.6c-1.4,0-2.5-0.4-3.4-1.2
		c-0.9-0.8-1.3-1.8-1.3-3c0-1.5,0.6-2.6,1.7-3.4c1.1-0.8,2.7-1.2,4.7-1.2h1.9v-0.9c0-0.7-0.2-1.3-0.6-1.7s-1-0.6-1.8-0.6
		c-0.7,0-1.3,0.2-1.7,0.5c-0.5,0.4-0.7,0.8-0.7,1.4h-3.1c0-0.8,0.3-1.5,0.8-2.1c0.5-0.7,1.2-1.2,2.1-1.6c0.9-0.4,1.8-0.6,2.9-0.6
		c1.6,0,2.9,0.4,3.9,1.2c1,0.8,1.5,2,1.5,3.5v6.3c0,1.3,0.2,2.3,0.5,3v0.2H130.1z M126.6,17.5c0.6,0,1.2-0.1,1.7-0.4
		c0.5-0.3,1-0.7,1.2-1.2v-2.6h-1.7c-1.2,0-2,0.2-2.6,0.6c-0.6,0.4-0.9,1-0.9,1.7c0,0.6,0.2,1.1,0.6,1.4
		C125.4,17.3,126,17.5,126.6,17.5z"/>
	<path id="XMLID_74_" class="st3" d="M143.3,8.7c-0.4-0.1-0.8-0.1-1.3-0.1c-1.4,0-2.4,0.5-2.9,1.6v9.5H136V5.8h3l0.1,1.6
		c0.8-1.2,1.8-1.8,3.1-1.8c0.4,0,0.8,0.1,1.1,0.2L143.3,8.7z"/>
	<path id="XMLID_76_" class="st3" d="M148.6,19.7h-3.1V0h3.1V19.7z"/>
	<path id="XMLID_78_" class="st3" d="M158.1,20c-2,0-3.6-0.6-4.8-1.9c-1.2-1.2-1.8-2.9-1.8-5v-0.4c0-1.4,0.3-2.6,0.8-3.7
		s1.3-1.9,2.3-2.6c1-0.6,2-0.9,3.2-0.9c1.9,0,3.4,0.6,4.4,1.8c1,1.2,1.5,2.9,1.5,5.1v1.3h-9.1c0.1,1.1,0.5,2.1,1.2,2.7
		c0.7,0.7,1.5,1,2.5,1c1.4,0,2.6-0.6,3.5-1.7l1.7,1.6c-0.6,0.8-1.3,1.5-2.2,1.9C160.3,19.7,159.3,20,158.1,20z M157.7,8
		c-0.9,0-1.5,0.3-2.1,0.9c-0.5,0.6-0.9,1.4-1,2.5h6v-0.2c-0.1-1-0.3-1.8-0.8-2.4C159.3,8.3,158.6,8,157.7,8z"/>
	<path id="XMLID_81_" class="st3" d="M170.8,15.2l2.8-9.4h3.3l-5.5,16c-0.8,2.3-2.3,3.5-4.3,3.5c-0.5,0-1-0.1-1.5-0.2v-2.4l0.6,0
		c0.8,0,1.4-0.1,1.8-0.4c0.4-0.3,0.7-0.8,0.9-1.4l0.4-1.2l-4.9-13.8h3.4L170.8,15.2z"/>
</g>
</svg>
